<?xml version="1.0" encoding="utf-8" ?>
<svg baseProfile="full" height="256.0" version="1.1" width="256.0" xmlns="http://www.w3.org/2000/svg" xmlns:ev="http://www.w3.org/2001/xml-events" xmlns:xlink="http://www.w3.org/1999/xlink"><defs /><rect fill="none" height="100%" width="100%" x="0" y="0" /><path d="M 117.000,223.500 L 116.000,223.500 L 115.000,223.500 L 114.000,223.500 L 113.000,223.500 L 112.000,223.500 L 111.000,223.500 L 110.000,223.500 L 109.000,223.500 L 108.000,223.500 L 107.000,223.500 L 106.000,223.500 L 105.000,223.500 L 104.500,223.000 L 104.500,222.000 L 104.500,221.000 L 104.500,220.000 L 104.500,219.000 L 105.000,218.500 L 105.500,218.000 L 105.500,217.000 L 105.500,216.000 L 105.500,215.000 L 105.500,214.000 L 105.500,213.000 L 106.000,212.500 L 106.500,212.000 L 106.500,211.000 L 106.500,210.000 L 106.500,209.000 L 106.500,208.000 L 107.000,207.500 L 107.500,207.000 L 107.500,206.000 L 107.500,205.000 L 107.500,204.000 L 107.500,203.000 L 107.500,202.000 L 108.000,201.500 L 108.500,201.000 L 108.500,200.000 L 108.500,199.000 L 108.500,198.000 L 108.500,197.000 L 109.000,196.500 L 109.500,196.000 L 109.500,195.000 L 109.500,194.000 L 109.500,193.000 L 109.500,192.000 L 109.500,191.000 L 110.000,190.500 L 110.500,190.000 L 110.500,189.000 L 110.500,188.000 L 110.500,187.000 L 110.500,186.000 L 110.500,185.000 L 111.000,184.500 L 111.500,184.000 L 111.500,183.000 L 111.500,182.000 L 111.500,181.000 L 111.500,180.000 L 112.000,179.500 L 112.500,179.000 L 112.500,178.000 L 112.500,177.000 L 112.500,176.000 L 112.500,175.000 L 112.500,174.000 L 113.000,173.500 L 113.500,173.000 L 113.500,172.000 L 113.500,171.000 L 113.500,170.000 L 113.500,169.000 L 114.000,168.500 L 114.500,168.000 L 114.500,167.000 L 114.500,166.000 L 114.500,165.000 L 114.500,164.000 L 114.500,163.000 L 115.000,162.500 L 115.500,162.000 L 115.500,161.000 L 115.500,160.000 L 115.500,159.000 L 115.500,158.000 L 115.500,157.000 L 116.000,156.500 L 116.500,156.000 L 116.500,155.000 L 116.500,154.000 L 116.500,153.000 L 116.500,152.000 L 117.000,151.500 L 117.500,151.000 L 117.500,150.000 L 117.500,149.000 L 117.500,148.000 L 117.500,147.000 L 117.500,146.000 L 118.000,145.500 L 118.500,145.000 L 118.500,144.000 L 118.500,143.000 L 118.500,142.000 L 118.500,141.000 L 119.000,140.500 L 119.500,140.000 L 119.500,139.000 L 119.500,138.000 L 119.500,137.000 L 119.500,136.000 L 119.500,135.000 L 120.000,134.500 L 120.500,134.000 L 120.500,133.000 L 120.500,132.000 L 120.500,131.000 L 120.500,130.000 L 121.000,129.500 L 121.500,129.000 L 121.500,128.000 L 121.500,127.000 L 121.500,126.000 L 121.500,125.000 L 121.500,124.000 L 122.000,123.500 L 122.500,123.000 L 122.500,122.000 L 122.500,121.000 L 122.500,120.000 L 122.500,119.000 L 122.500,118.000 L 123.000,117.500 L 123.500,117.000 L 123.500,116.000 L 123.500,115.000 L 123.500,114.000 L 123.500,113.000 L 124.000,112.500 L 124.500,112.000 L 124.500,111.000 L 124.500,110.000 L 124.500,109.000 L 124.500,108.000 L 124.500,107.000 L 125.000,106.500 L 125.500,106.000 L 125.500,105.000 L 125.500,104.000 L 125.500,103.000 L 125.500,102.000 L 126.000,101.500 L 126.500,101.000 L 126.500,100.000 L 126.500,99.000 L 126.500,98.000 L 126.500,97.000 L 126.500,96.000 L 127.000,95.500 L 127.500,95.000 L 127.500,94.000 L 127.500,93.000 L 127.500,92.000 L 127.500,91.000 L 127.500,90.000 L 128.000,89.500 L 128.500,89.000 L 128.500,88.000 L 128.500,87.000 L 128.500,86.000 L 128.500,85.000 L 129.000,84.500 L 129.500,84.000 L 129.500,83.000 L 129.500,82.000 L 129.500,81.000 L 129.500,80.000 L 129.500,79.000 L 130.000,78.500 L 130.500,78.000 L 130.500,77.000 L 130.500,76.000 L 130.500,75.000 L 130.500,74.000 L 131.000,73.500 L 131.500,73.000 L 131.500,72.000 L 131.500,71.000 L 131.500,70.000 L 131.500,69.000 L 131.500,68.000 L 132.000,67.500 L 132.500,67.000 L 132.500,66.000 L 132.500,65.000 L 132.500,64.000 L 132.500,63.000 L 132.500,62.000 L 133.000,61.500 L 133.500,61.000 L 133.500,60.000 L 133.500,59.000 L 133.500,58.000 L 133.500,57.000 L 134.000,56.500 L 134.500,56.000 L 134.500,55.000 L 134.500,54.000 L 134.500,53.000 L 134.500,52.000 L 134.500,51.000 L 135.000,50.500 L 135.500,50.000 L 135.500,49.000 L 135.500,48.000 L 135.500,47.000 L 135.500,46.000 L 136.000,45.500 L 136.500,45.000 L 136.500,44.000 L 136.500,43.000 L 136.500,42.000 L 136.500,41.000 L 136.500,40.000 L 137.000,39.500 L 137.500,39.000 L 137.500,38.000 L 137.500,37.000 L 137.500,36.000 L 137.500,35.000 L 137.500,34.000 L 138.000,33.500 L 138.500,33.000 L 138.500,32.000 L 139.000,31.500 L 139.500,31.000 L 140.000,30.500 L 141.000,30.500 L 142.000,30.500 L 143.000,30.500 L 144.000,30.500 L 145.000,30.500 L 146.000,30.500 L 147.000,30.500 L 148.000,30.500 L 149.000,30.500 L 150.000,30.500 L 151.000,30.500 L 151.500,31.000 L 152.000,31.500 L 152.500,32.000 L 152.500,33.000 L 152.000,33.500 L 151.500,34.000 L 151.500,35.000 L 151.500,36.000 L 151.500,37.000 L 151.500,38.000 L 151.500,39.000 L 151.000,39.500 L 150.500,40.000 L 150.500,41.000 L 150.500,42.000 L 150.500,43.000 L 150.500,44.000 L 150.500,45.000 L 150.000,45.500 L 149.500,46.000 L 149.500,47.000 L 149.500,48.000 L 149.500,49.000 L 149.500,50.000 L 149.000,50.500 L 148.500,51.000 L 148.500,52.000 L 148.500,53.000 L 148.500,54.000 L 148.500,55.000 L 148.500,56.000 L 148.000,56.500 L 147.500,57.000 L 147.500,58.000 L 147.500,59.000 L 147.500,60.000 L 147.500,61.000 L 147.000,61.500 L 146.500,62.000 L 146.500,63.000 L 146.500,64.000 L 146.500,65.000 L 146.500,66.000 L 146.500,67.000 L 146.000,67.500 L 145.500,68.000 L 145.500,69.000 L 145.500,70.000 L 145.500,71.000 L 145.500,72.000 L 145.500,73.000 L 145.000,73.500 L 144.500,74.000 L 144.500,75.000 L 144.500,76.000 L 144.500,77.000 L 144.500,78.000 L 144.000,78.500 L 143.500,79.000 L 143.500,80.000 L 143.500,81.000 L 143.500,82.000 L 143.500,83.000 L 143.500,84.000 L 143.000,84.500 L 142.500,85.000 L 142.500,86.000 L 142.500,87.000 L 142.500,88.000 L 142.500,89.000 L 142.000,89.500 L 141.500,90.000 L 141.500,91.000 L 141.500,92.000 L 141.500,93.000 L 141.500,94.000 L 141.500,95.000 L 141.000,95.500 L 140.500,96.000 L 140.500,97.000 L 140.500,98.000 L 140.500,99.000 L 140.500,100.000 L 140.500,101.000 L 140.000,101.500 L 139.500,102.000 L 139.500,103.000 L 139.500,104.000 L 139.500,105.000 L 139.500,106.000 L 139.000,106.500 L 138.500,107.000 L 138.500,108.000 L 138.500,109.000 L 138.500,110.000 L 138.500,111.000 L 138.500,112.000 L 138.000,112.500 L 137.500,113.000 L 137.500,114.000 L 137.500,115.000 L 137.500,116.000 L 137.500,117.000 L 137.000,117.500 L 136.500,118.000 L 136.500,119.000 L 136.500,120.000 L 136.500,121.000 L 136.500,122.000 L 136.500,123.000 L 136.000,123.500 L 135.500,124.000 L 135.500,125.000 L 135.500,126.000 L 135.500,127.000 L 135.500,128.000 L 135.500,129.000 L 135.000,129.500 L 134.500,130.000 L 134.500,131.000 L 134.500,132.000 L 134.500,133.000 L 134.500,134.000 L 134.000,134.500 L 133.500,135.000 L 133.500,136.000 L 133.500,137.000 L 133.500,138.000 L 133.500,139.000 L 133.500,140.000 L 133.000,140.500 L 132.500,141.000 L 132.500,142.000 L 132.500,143.000 L 132.500,144.000 L 132.500,145.000 L 132.000,145.500 L 131.500,146.000 L 131.500,147.000 L 131.500,148.000 L 131.500,149.000 L 131.500,150.000 L 131.500,151.000 L 131.000,151.500 L 130.500,152.000 L 130.500,153.000 L 130.500,154.000 L 130.500,155.000 L 130.500,156.000 L 130.500,157.000 L 130.000,157.500 L 129.500,158.000 L 129.500,159.000 L 129.500,160.000 L 129.500,161.000 L 129.500,162.000 L 129.000,162.500 L 128.500,163.000 L 128.500,164.000 L 128.500,165.000 L 128.500,166.000 L 128.500,167.000 L 128.500,168.000 L 128.000,168.500 L 127.500,169.000 L 127.500,170.000 L 127.500,171.000 L 127.500,172.000 L 127.500,173.000 L 127.000,173.500 L 126.500,174.000 L 126.500,175.000 L 126.500,176.000 L 126.500,177.000 L 126.500,178.000 L 126.500,179.000 L 126.000,179.500 L 125.500,180.000 L 125.500,181.000 L 125.500,182.000 L 125.500,183.000 L 125.500,184.000 L 125.500,185.000 L 125.000,185.500 L 124.500,186.000 L 124.500,187.000 L 124.500,188.000 L 124.500,189.000 L 124.500,190.000 L 124.000,190.500 L 123.500,191.000 L 123.500,192.000 L 123.500,193.000 L 123.500,194.000 L 123.500,195.000 L 123.500,196.000 L 123.000,196.500 L 122.500,197.000 L 122.500,198.000 L 122.500,199.000 L 122.500,200.000 L 122.500,201.000 L 122.000,201.500 L 121.500,202.000 L 121.500,203.000 L 121.500,204.000 L 121.500,205.000 L 121.500,206.000 L 121.500,207.000 L 121.000,207.500 L 120.500,208.000 L 120.500,209.000 L 120.500,210.000 L 120.500,211.000 L 120.500,212.000 L 120.500,213.000 L 120.000,213.500 L 119.500,214.000 L 119.500,215.000 L 119.500,216.000 L 119.500,217.000 L 119.500,218.000 L 119.000,218.500 L 118.500,219.000 L 118.500,220.000 L 118.500,221.000 L 118.500,222.000 L 118.000,222.500 L 117.500,223.000 L 117.000,223.500 Z M 97.000,191.500 L 96.000,191.500 L 95.000,191.500 L 94.500,191.000 L 94.000,190.500 L 93.500,190.000 L 93.000,189.500 L 92.000,189.500 L 91.500,189.000 L 91.000,188.500 L 90.500,188.000 L 90.000,187.500 L 89.000,187.500 L 88.500,187.000 L 88.000,186.500 L 87.500,186.000 L 87.000,185.500 L 86.000,185.500 L 85.500,185.000 L 85.000,184.500 L 84.500,184.000 L 84.000,183.500 L 83.000,183.500 L 82.500,183.000 L 82.000,182.500 L 81.500,182.000 L 81.000,181.500 L 80.000,181.500 L 79.500,181.000 L 79.000,180.500 L 78.500,180.000 L 78.000,179.500 L 77.000,179.500 L 76.500,179.000 L 76.000,178.500 L 75.500,178.000 L 75.000,177.500 L 74.000,177.500 L 73.500,177.000 L 73.000,176.500 L 72.500,176.000 L 72.000,175.500 L 71.000,175.500 L 70.500,175.000 L 70.000,174.500 L 69.500,174.000 L 69.000,173.500 L 68.000,173.500 L 67.500,173.000 L 67.000,172.500 L 66.500,172.000 L 66.000,171.500 L 65.000,171.500 L 64.500,171.000 L 64.000,170.500 L 63.500,170.000 L 63.000,169.500 L 62.000,169.500 L 61.500,169.000 L 61.000,168.500 L 60.500,168.000 L 60.000,167.500 L 59.000,167.500 L 58.500,167.000 L 58.000,166.500 L 57.500,166.000 L 57.000,165.500 L 56.000,165.500 L 55.500,165.000 L 55.000,164.500 L 54.500,164.000 L 54.000,163.500 L 53.000,163.500 L 52.500,163.000 L 52.000,162.500 L 51.500,162.000 L 51.000,161.500 L 50.000,161.500 L 49.500,161.000 L 49.000,160.500 L 48.500,160.000 L 48.000,159.500 L 47.000,159.500 L 46.500,159.000 L 46.000,158.500 L 45.500,158.000 L 45.000,157.500 L 44.000,157.500 L 43.500,157.000 L 43.000,156.500 L 42.500,156.000 L 42.000,155.500 L 41.000,155.500 L 40.500,155.000 L 40.000,154.500 L 39.500,154.000 L 39.000,153.500 L 38.000,153.500 L 37.500,153.000 L 37.000,152.500 L 36.500,152.000 L 36.000,151.500 L 35.000,151.500 L 34.500,151.000 L 34.000,150.500 L 33.500,150.000 L 33.000,149.500 L 32.000,149.500 L 31.500,149.000 L 31.000,148.500 L 30.500,148.000 L 30.000,147.500 L 29.000,147.500 L 28.500,147.000 L 28.000,146.500 L 27.500,146.000 L 27.000,145.500 L 26.000,145.500 L 25.500,145.000 L 25.000,144.500 L 24.500,144.000 L 24.000,143.500 L 23.000,143.500 L 22.500,143.000 L 22.000,142.500 L 21.500,142.000 L 21.000,141.500 L 20.000,141.500 L 19.500,141.000 L 19.000,140.500 L 18.500,140.000 L 18.000,139.500 L 17.500,139.000 L 17.500,138.000 L 17.500,137.000 L 17.500,136.000 L 17.500,135.000 L 17.500,134.000 L 17.500,133.000 L 17.500,132.000 L 17.500,131.000 L 17.500,130.000 L 17.500,129.000 L 17.500,128.000 L 17.500,127.000 L 17.500,126.000 L 17.500,125.000 L 17.500,124.000 L 17.500,123.000 L 17.500,122.000 L 17.500,121.000 L 17.500,120.000 L 17.500,119.000 L 17.500,118.000 L 17.500,117.000 L 18.000,116.500 L 18.500,116.000 L 19.000,115.500 L 20.000,115.500 L 20.500,115.000 L 21.000,114.500 L 21.500,114.000 L 22.000,113.500 L 23.000,113.500 L 23.500,113.000 L 24.000,112.500 L 24.500,112.000 L 25.000,111.500 L 26.000,111.500 L 26.500,111.000 L 27.000,110.500 L 27.500,110.000 L 28.000,109.500 L 29.000,109.500 L 29.500,109.000 L 30.000,108.500 L 30.500,108.000 L 31.000,107.500 L 32.000,107.500 L 32.500,107.000 L 33.000,106.500 L 33.500,106.000 L 34.000,105.500 L 35.000,105.500 L 35.500,105.000 L 36.000,104.500 L 37.000,104.500 L 37.500,104.000 L 38.000,103.500 L 38.500,103.000 L 39.000,102.500 L 40.000,102.500 L 40.500,102.000 L 41.000,101.500 L 41.500,101.000 L 42.000,100.500 L 43.000,100.500 L 43.500,100.000 L 44.000,99.500 L 44.500,99.000 L 45.000,98.500 L 46.000,98.500 L 46.500,98.000 L 47.000,97.500 L 47.500,97.000 L 48.000,96.500 L 49.000,96.500 L 49.500,96.000 L 50.000,95.500 L 50.500,95.000 L 51.000,94.500 L 52.000,94.500 L 52.500,94.000 L 53.000,93.500 L 53.500,93.000 L 54.000,92.500 L 55.000,92.500 L 55.500,92.000 L 56.000,91.500 L 56.500,91.000 L 57.000,90.500 L 58.000,90.500 L 58.500,90.000 L 59.000,89.500 L 59.500,89.000 L 60.000,88.500 L 61.000,88.500 L 61.500,88.000 L 62.000,87.500 L 62.500,87.000 L 63.000,86.500 L 64.000,86.500 L 64.500,86.000 L 65.000,85.500 L 65.500,85.000 L 66.000,84.500 L 67.000,84.500 L 67.500,84.000 L 68.000,83.500 L 68.500,83.000 L 69.000,82.500 L 70.000,82.500 L 70.500,82.000 L 71.000,81.500 L 71.500,81.000 L 72.000,80.500 L 73.000,80.500 L 73.500,80.000 L 74.000,79.500 L 74.500,79.000 L 75.000,78.500 L 76.000,78.500 L 76.500,78.000 L 77.000,77.500 L 77.500,77.000 L 78.000,76.500 L 79.000,76.500 L 79.500,76.000 L 80.000,75.500 L 80.500,75.000 L 81.000,74.500 L 82.000,74.500 L 82.500,74.000 L 83.000,73.500 L 83.500,73.000 L 84.000,72.500 L 85.000,72.500 L 85.500,72.000 L 86.000,71.500 L 86.500,71.000 L 87.000,70.500 L 88.000,70.500 L 88.500,70.000 L 89.000,69.500 L 89.500,69.000 L 90.000,68.500 L 91.000,68.500 L 91.500,68.000 L 92.000,67.500 L 92.500,67.000 L 93.000,66.500 L 94.000,66.500 L 94.500,66.000 L 95.000,65.500 L 96.000,65.500 L 97.000,65.500 L 97.500,66.000 L 97.500,67.000 L 97.500,68.000 L 97.500,69.000 L 97.500,70.000 L 97.500,71.000 L 97.500,72.000 L 97.500,73.000 L 97.500,74.000 L 97.500,75.000 L 97.500,76.000 L 97.500,77.000 L 97.500,78.000 L 97.500,79.000 L 97.500,80.000 L 97.500,81.000 L 97.500,82.000 L 97.500,83.000 L 97.500,84.000 L 97.500,85.000 L 97.500,86.000 L 97.500,87.000 L 97.500,88.000 L 97.500,89.000 L 97.000,89.500 L 96.500,90.000 L 96.000,90.500 L 95.000,90.500 L 94.500,91.000 L 94.000,91.500 L 93.500,92.000 L 93.000,92.500 L 92.000,92.500 L 91.500,93.000 L 91.000,93.500 L 90.500,94.000 L 90.000,94.500 L 89.000,94.500 L 88.500,95.000 L 88.000,95.500 L 87.500,96.000 L 87.000,96.500 L 86.000,96.500 L 85.500,97.000 L 85.000,97.500 L 84.500,98.000 L 84.000,98.500 L 83.000,98.500 L 82.500,99.000 L 82.000,99.500 L 81.000,99.500 L 80.500,100.000 L 80.000,100.500 L 79.500,101.000 L 79.000,101.500 L 78.000,101.500 L 77.500,102.000 L 77.000,102.500 L 76.500,103.000 L 76.000,103.500 L 75.000,103.500 L 74.500,104.000 L 74.000,104.500 L 73.500,105.000 L 73.000,105.500 L 72.000,105.500 L 71.500,106.000 L 71.000,106.500 L 70.500,107.000 L 70.000,107.500 L 69.000,107.500 L 68.500,108.000 L 68.000,108.500 L 67.000,108.500 L 66.500,109.000 L 66.000,109.500 L 65.500,110.000 L 65.000,110.500 L 64.000,110.500 L 63.500,111.000 L 63.000,111.500 L 62.500,112.000 L 62.000,112.500 L 61.000,112.500 L 60.500,113.000 L 60.000,113.500 L 59.500,114.000 L 59.000,114.500 L 58.000,114.500 L 57.500,115.000 L 57.000,115.500 L 56.500,116.000 L 56.000,116.500 L 55.000,116.500 L 54.500,117.000 L 54.000,117.500 L 53.000,117.500 L 52.500,118.000 L 52.000,118.500 L 51.500,119.000 L 51.000,119.500 L 50.000,119.500 L 49.500,120.000 L 49.000,120.500 L 48.500,121.000 L 48.000,121.500 L 47.000,121.500 L 46.500,122.000 L 46.000,122.500 L 45.500,123.000 L 45.000,123.500 L 44.000,123.500 L 43.500,124.000 L 43.000,124.500 L 42.500,125.000 L 42.000,125.500 L 41.000,125.500 L 40.500,126.000 L 40.000,126.500 L 39.000,126.500 L 38.500,127.000 L 38.000,127.500 L 37.500,128.000 L 38.000,128.500 L 38.500,129.000 L 39.000,129.500 L 39.500,130.000 L 40.000,130.500 L 41.000,130.500 L 41.500,131.000 L 42.000,131.500 L 42.500,132.000 L 43.000,132.500 L 44.000,132.500 L 44.500,133.000 L 45.000,133.500 L 45.500,134.000 L 46.000,134.500 L 47.000,134.500 L 47.500,135.000 L 48.000,135.500 L 48.500,136.000 L 49.000,136.500 L 50.000,136.500 L 50.500,137.000 L 51.000,137.500 L 51.500,138.000 L 52.000,138.500 L 53.000,138.500 L 53.500,139.000 L 54.000,139.500 L 55.000,139.500 L 55.500,140.000 L 56.000,140.500 L 56.500,141.000 L 57.000,141.500 L 58.000,141.500 L 58.500,142.000 L 59.000,142.500 L 59.500,143.000 L 60.000,143.500 L 61.000,143.500 L 61.500,144.000 L 62.000,144.500 L 62.500,145.000 L 63.000,145.500 L 64.000,145.500 L 64.500,146.000 L 65.000,146.500 L 65.500,147.000 L 66.000,147.500 L 67.000,147.500 L 67.500,148.000 L 68.000,148.500 L 68.500,149.000 L 69.000,149.500 L 70.000,149.500 L 70.500,150.000 L 71.000,150.500 L 71.500,151.000 L 72.000,151.500 L 73.000,151.500 L 73.500,152.000 L 74.000,152.500 L 75.000,152.500 L 75.500,153.000 L 76.000,153.500 L 76.500,154.000 L 77.000,154.500 L 78.000,154.500 L 78.500,155.000 L 79.000,155.500 L 79.500,156.000 L 80.000,156.500 L 81.000,156.500 L 81.500,157.000 L 82.000,157.500 L 82.500,158.000 L 83.000,158.500 L 84.000,158.500 L 84.500,159.000 L 85.000,159.500 L 85.500,160.000 L 86.000,160.500 L 87.000,160.500 L 87.500,161.000 L 88.000,161.500 L 88.500,162.000 L 89.000,162.500 L 90.000,162.500 L 90.500,163.000 L 91.000,163.500 L 91.500,164.000 L 92.000,164.500 L 93.000,164.500 L 93.500,165.000 L 94.000,165.500 L 95.000,165.500 L 95.500,166.000 L 96.000,166.500 L 96.500,167.000 L 97.000,167.500 L 97.500,168.000 L 97.500,169.000 L 97.500,170.000 L 97.500,171.000 L 97.500,172.000 L 97.500,173.000 L 97.500,174.000 L 97.500,175.000 L 97.500,176.000 L 97.500,177.000 L 97.500,178.000 L 97.500,179.000 L 97.500,180.000 L 97.500,181.000 L 97.500,182.000 L 97.500,183.000 L 97.500,184.000 L 97.500,185.000 L 97.500,186.000 L 97.500,187.000 L 97.500,188.000 L 97.500,189.000 L 97.500,190.000 L 97.500,191.000 L 97.000,191.500 Z M 162.000,191.500 L 161.000,191.500 L 160.000,191.500 L 159.500,191.000 L 159.000,190.500 L 158.500,190.000 L 158.500,189.000 L 158.500,188.000 L 158.500,187.000 L 158.500,186.000 L 158.500,185.000 L 158.500,184.000 L 158.500,183.000 L 158.500,182.000 L 158.500,181.000 L 158.500,180.000 L 158.500,179.000 L 158.500,178.000 L 158.500,177.000 L 158.500,176.000 L 158.500,175.000 L 158.500,174.000 L 158.500,173.000 L 158.500,172.000 L 158.500,171.000 L 158.500,170.000 L 158.500,169.000 L 159.000,168.500 L 159.500,168.000 L 159.500,167.000 L 160.000,166.500 L 161.000,166.500 L 161.500,166.000 L 162.000,165.500 L 163.000,165.500 L 163.500,165.000 L 164.000,164.500 L 164.500,164.000 L 165.000,163.500 L 166.000,163.500 L 166.500,163.000 L 167.000,162.500 L 167.500,162.000 L 168.000,161.500 L 169.000,161.500 L 169.500,161.000 L 170.000,160.500 L 170.500,160.000 L 171.000,159.500 L 172.000,159.500 L 172.500,159.000 L 173.000,158.500 L 173.500,158.000 L 174.000,157.500 L 175.000,157.500 L 175.500,157.000 L 176.000,156.500 L 176.500,156.000 L 177.000,155.500 L 178.000,155.500 L 178.500,155.000 L 179.000,154.500 L 179.500,154.000 L 180.000,153.500 L 181.000,153.500 L 181.500,153.000 L 182.000,152.500 L 183.000,152.500 L 183.500,152.000 L 184.000,151.500 L 184.500,151.000 L 185.000,150.500 L 186.000,150.500 L 186.500,150.000 L 187.000,149.500 L 187.500,149.000 L 188.000,148.500 L 189.000,148.500 L 189.500,148.000 L 190.000,147.500 L 190.500,147.000 L 191.000,146.500 L 192.000,146.500 L 192.500,146.000 L 193.000,145.500 L 193.500,145.000 L 194.000,144.500 L 195.000,144.500 L 195.500,144.000 L 196.000,143.500 L 196.500,143.000 L 197.000,142.500 L 198.000,142.500 L 198.500,142.000 L 199.000,141.500 L 199.500,141.000 L 200.000,140.500 L 201.000,140.500 L 201.500,140.000 L 202.000,139.500 L 203.000,139.500 L 203.500,139.000 L 204.000,138.500 L 204.500,138.000 L 205.000,137.500 L 206.000,137.500 L 206.500,137.000 L 207.000,136.500 L 207.500,136.000 L 208.000,135.500 L 209.000,135.500 L 209.500,135.000 L 210.000,134.500 L 210.500,134.000 L 211.000,133.500 L 212.000,133.500 L 212.500,133.000 L 213.000,132.500 L 213.500,132.000 L 214.000,131.500 L 215.000,131.500 L 215.500,131.000 L 216.000,130.500 L 216.500,130.000 L 217.000,129.500 L 218.000,129.500 L 218.500,129.000 L 219.000,128.500 L 219.500,128.000 L 219.000,127.500 L 218.000,127.500 L 217.500,127.000 L 217.000,126.500 L 216.500,126.000 L 216.000,125.500 L 215.000,125.500 L 214.500,125.000 L 214.000,124.500 L 213.000,124.500 L 212.500,124.000 L 212.000,123.500 L 211.500,123.000 L 211.000,122.500 L 210.000,122.500 L 209.500,122.000 L 209.000,121.500 L 208.500,121.000 L 208.000,120.500 L 207.000,120.500 L 206.500,120.000 L 206.000,119.500 L 205.500,119.000 L 205.000,118.500 L 204.000,118.500 L 203.500,118.000 L 203.000,117.500 L 202.500,117.000 L 202.000,116.500 L 201.000,116.500 L 200.500,116.000 L 200.000,115.500 L 199.000,115.500 L 198.500,115.000 L 198.000,114.500 L 197.500,114.000 L 197.000,113.500 L 196.000,113.500 L 195.500,113.000 L 195.000,112.500 L 194.500,112.000 L 194.000,111.500 L 193.000,111.500 L 192.500,111.000 L 192.000,110.500 L 191.500,110.000 L 191.000,109.500 L 190.000,109.500 L 189.500,109.000 L 189.000,108.500 L 188.500,108.000 L 188.000,107.500 L 187.000,107.500 L 186.500,107.000 L 186.000,106.500 L 185.000,106.500 L 184.500,106.000 L 184.000,105.500 L 183.500,105.000 L 183.000,104.500 L 182.000,104.500 L 181.500,104.000 L 181.000,103.500 L 180.500,103.000 L 180.000,102.500 L 179.000,102.500 L 178.500,102.000 L 178.000,101.500 L 177.500,101.000 L 177.000,100.500 L 176.000,100.500 L 175.500,100.000 L 175.000,99.500 L 174.500,99.000 L 174.000,98.500 L 173.000,98.500 L 172.500,98.000 L 172.000,97.500 L 171.000,97.500 L 170.500,97.000 L 170.000,96.500 L 169.500,96.000 L 169.000,95.500 L 168.000,95.500 L 167.500,95.000 L 167.000,94.500 L 166.500,94.000 L 166.000,93.500 L 165.000,93.500 L 164.500,93.000 L 164.000,92.500 L 163.500,92.000 L 163.000,91.500 L 162.000,91.500 L 161.500,91.000 L 161.000,90.500 L 160.500,90.000 L 160.000,89.500 L 159.500,89.000 L 159.000,88.500 L 158.500,88.000 L 158.500,87.000 L 158.500,86.000 L 158.500,85.000 L 158.500,84.000 L 158.500,83.000 L 158.500,82.000 L 158.500,81.000 L 158.500,80.000 L 158.500,79.000 L 158.500,78.000 L 158.500,77.000 L 158.500,76.000 L 158.500,75.000 L 158.500,74.000 L 158.500,73.000 L 158.500,72.000 L 158.500,71.000 L 158.500,70.000 L 158.500,69.000 L 158.500,68.000 L 158.500,67.000 L 159.000,66.500 L 159.500,66.000 L 160.000,65.500 L 161.000,65.500 L 162.000,65.500 L 162.500,66.000 L 163.000,66.500 L 163.500,67.000 L 164.000,67.500 L 165.000,67.500 L 165.500,68.000 L 166.000,68.500 L 166.500,69.000 L 167.000,69.500 L 168.000,69.500 L 168.500,70.000 L 169.000,70.500 L 169.500,71.000 L 170.000,71.500 L 171.000,71.500 L 171.500,72.000 L 172.000,72.500 L 172.500,73.000 L 173.000,73.500 L 174.000,73.500 L 174.500,74.000 L 175.000,74.500 L 175.500,75.000 L 176.000,75.500 L 177.000,75.500 L 177.500,76.000 L 178.000,76.500 L 178.500,77.000 L 179.000,77.500 L 180.000,77.500 L 180.500,78.000 L 181.000,78.500 L 181.500,79.000 L 182.000,79.500 L 183.000,79.500 L 183.500,80.000 L 184.000,80.500 L 184.500,81.000 L 185.000,81.500 L 186.000,81.500 L 186.500,82.000 L 187.000,82.500 L 187.500,83.000 L 188.000,83.500 L 189.000,83.500 L 189.500,84.000 L 190.000,84.500 L 190.500,85.000 L 191.000,85.500 L 192.000,85.500 L 192.500,86.000 L 193.000,86.500 L 193.500,87.000 L 194.000,87.500 L 195.000,87.500 L 195.500,88.000 L 196.000,88.500 L 196.500,89.000 L 197.000,89.500 L 198.000,89.500 L 198.500,90.000 L 199.000,90.500 L 199.500,91.000 L 200.000,91.500 L 201.000,91.500 L 201.500,92.000 L 202.000,92.500 L 202.500,93.000 L 203.000,93.500 L 204.000,93.500 L 204.500,94.000 L 205.000,94.500 L 205.500,95.000 L 206.000,95.500 L 207.000,95.500 L 207.500,96.000 L 208.000,96.500 L 208.500,97.000 L 209.000,97.500 L 210.000,97.500 L 210.500,98.000 L 211.000,98.500 L 211.500,99.000 L 212.000,99.500 L 213.000,99.500 L 213.500,100.000 L 214.000,100.500 L 215.000,100.500 L 215.500,101.000 L 216.000,101.500 L 216.500,102.000 L 217.000,102.500 L 218.000,102.500 L 218.500,103.000 L 219.000,103.500 L 219.500,104.000 L 220.000,104.500 L 221.000,104.500 L 221.500,105.000 L 222.000,105.500 L 222.500,106.000 L 223.000,106.500 L 224.000,106.500 L 224.500,107.000 L 225.000,107.500 L 225.500,108.000 L 226.000,108.500 L 227.000,108.500 L 227.500,109.000 L 228.000,109.500 L 228.500,110.000 L 229.000,110.500 L 230.000,110.500 L 230.500,111.000 L 231.000,111.500 L 231.500,112.000 L 232.000,112.500 L 233.000,112.500 L 233.500,113.000 L 234.000,113.500 L 234.500,114.000 L 235.000,114.500 L 236.000,114.500 L 236.500,115.000 L 237.000,115.500 L 237.500,116.000 L 238.000,116.500 L 238.500,117.000 L 239.000,117.500 L 239.500,118.000 L 239.500,119.000 L 239.500,120.000 L 239.500,121.000 L 239.500,122.000 L 239.500,123.000 L 239.500,124.000 L 239.500,125.000 L 239.500,126.000 L 239.500,127.000 L 239.500,128.000 L 239.500,129.000 L 239.500,130.000 L 239.500,131.000 L 239.500,132.000 L 239.500,133.000 L 239.500,134.000 L 239.500,135.000 L 239.500,136.000 L 239.500,137.000 L 239.500,138.000 L 239.000,138.500 L 238.500,139.000 L 238.500,140.000 L 238.000,140.500 L 237.000,140.500 L 236.500,141.000 L 236.000,141.500 L 235.500,142.000 L 235.000,142.500 L 234.000,142.500 L 233.500,143.000 L 233.000,143.500 L 232.500,144.000 L 232.000,144.500 L 231.000,144.500 L 230.500,145.000 L 230.000,145.500 L 229.500,146.000 L 229.000,146.500 L 228.000,146.500 L 227.500,147.000 L 227.000,147.500 L 226.500,148.000 L 226.000,148.500 L 225.000,148.500 L 224.500,149.000 L 224.000,149.500 L 223.500,150.000 L 223.000,150.500 L 222.000,150.500 L 221.500,151.000 L 221.000,151.500 L 220.500,152.000 L 220.000,152.500 L 219.000,152.500 L 218.500,153.000 L 218.000,153.500 L 217.500,154.000 L 217.000,154.500 L 216.000,154.500 L 215.500,155.000 L 215.000,155.500 L 214.500,156.000 L 214.000,156.500 L 213.000,156.500 L 212.500,157.000 L 212.000,157.500 L 211.500,158.000 L 211.000,158.500 L 210.000,158.500 L 209.500,159.000 L 209.000,159.500 L 208.500,160.000 L 208.000,160.500 L 207.000,160.500 L 206.500,161.000 L 206.000,161.500 L 205.500,162.000 L 205.000,162.500 L 204.000,162.500 L 203.500,163.000 L 203.000,163.500 L 202.500,164.000 L 202.000,164.500 L 201.000,164.500 L 200.500,165.000 L 200.000,165.500 L 199.500,166.000 L 199.000,166.500 L 198.000,166.500 L 197.500,167.000 L 197.000,167.500 L 196.500,168.000 L 196.000,168.500 L 195.000,168.500 L 194.500,169.000 L 194.000,169.500 L 193.500,170.000 L 193.000,170.500 L 192.000,170.500 L 191.500,171.000 L 191.000,171.500 L 190.500,172.000 L 190.000,172.500 L 189.000,172.500 L 188.500,173.000 L 188.000,173.500 L 187.500,174.000 L 187.000,174.500 L 186.000,174.500 L 185.500,175.000 L 185.000,175.500 L 184.500,176.000 L 184.000,176.500 L 183.000,176.500 L 182.500,177.000 L 182.000,177.500 L 181.500,178.000 L 181.000,178.500 L 180.000,178.500 L 179.500,179.000 L 179.000,179.500 L 178.500,180.000 L 178.000,180.500 L 177.000,180.500 L 176.500,181.000 L 176.000,181.500 L 175.500,182.000 L 175.000,182.500 L 174.000,182.500 L 173.500,183.000 L 173.000,183.500 L 172.500,184.000 L 172.000,184.500 L 171.000,184.500 L 170.500,185.000 L 170.000,185.500 L 169.500,186.000 L 169.000,186.500 L 168.000,186.500 L 167.500,187.000 L 167.000,187.500 L 166.500,188.000 L 166.000,188.500 L 165.000,188.500 L 164.500,189.000 L 164.000,189.500 L 163.500,190.000 L 163.000,190.500 L 162.500,191.000 L 162.000,191.500 Z" fill="white" fill-rule="evenodd" stroke="none" /></svg>