<?xml version="1.0" encoding="utf-8" ?>
<svg baseProfile="full" height="512.0" version="1.1" width="512.0" xmlns="http://www.w3.org/2000/svg" xmlns:ev="http://www.w3.org/2001/xml-events" xmlns:xlink="http://www.w3.org/1999/xlink"><defs /><rect fill="none" height="100%" width="100%" x="0" y="0" /><path d="M 59.000,453.500 L 58.000,453.500 L 57.500,453.000 L 57.500,452.000 L 57.500,451.000 L 57.500,450.000 L 57.500,449.000 L 57.500,448.000 L 57.500,447.000 L 57.500,446.000 L 57.500,445.000 L 57.500,444.000 L 57.500,443.000 L 57.500,442.000 L 57.500,441.000 L 57.500,440.000 L 57.500,439.000 L 57.500,438.000 L 57.500,437.000 L 57.500,436.000 L 57.500,435.000 L 57.500,434.000 L 57.500,433.000 L 57.500,432.000 L 57.500,431.000 L 57.500,430.000 L 57.500,429.000 L 57.500,428.000 L 57.500,427.000 L 57.500,426.000 L 57.500,425.000 L 57.500,424.000 L 57.500,423.000 L 57.500,422.000 L 57.500,421.000 L 57.500,420.000 L 57.500,419.000 L 57.500,418.000 L 57.500,417.000 L 57.500,416.000 L 57.500,415.000 L 57.500,414.000 L 57.500,413.000 L 57.500,412.000 L 57.500,411.000 L 57.500,410.000 L 57.500,409.000 L 57.500,408.000 L 57.500,407.000 L 57.500,406.000 L 57.500,405.000 L 57.500,404.000 L 57.500,403.000 L 57.500,402.000 L 57.500,401.000 L 57.500,400.000 L 57.500,399.000 L 57.500,398.000 L 57.500,397.000 L 57.500,396.000 L 57.500,395.000 L 57.500,394.000 L 57.500,393.000 L 57.500,392.000 L 57.500,391.000 L 57.500,390.000 L 57.500,389.000 L 57.500,388.000 L 57.500,387.000 L 57.500,386.000 L 57.500,385.000 L 57.500,384.000 L 57.500,383.000 L 57.500,382.000 L 57.500,381.000 L 57.500,380.000 L 57.500,379.000 L 57.500,378.000 L 57.500,377.000 L 57.500,376.000 L 57.500,375.000 L 57.500,374.000 L 57.500,373.000 L 57.500,372.000 L 57.500,371.000 L 57.500,370.000 L 57.500,369.000 L 57.500,368.000 L 57.500,367.000 L 57.500,366.000 L 57.500,365.000 L 57.500,364.000 L 57.500,363.000 L 57.500,362.000 L 57.500,361.000 L 57.500,360.000 L 57.500,359.000 L 57.500,358.000 L 57.500,357.000 L 57.500,356.000 L 57.500,355.000 L 57.500,354.000 L 57.500,353.000 L 57.500,352.000 L 57.500,351.000 L 57.500,350.000 L 57.500,349.000 L 57.500,348.000 L 57.500,347.000 L 57.500,346.000 L 57.500,345.000 L 57.500,344.000 L 57.500,343.000 L 57.500,342.000 L 57.500,341.000 L 57.500,340.000 L 57.500,339.000 L 57.500,338.000 L 57.500,337.000 L 57.500,336.000 L 57.500,335.000 L 57.500,334.000 L 57.500,333.000 L 57.500,332.000 L 57.500,331.000 L 57.500,330.000 L 57.500,329.000 L 57.500,328.000 L 57.500,327.000 L 57.500,326.000 L 57.500,325.000 L 57.500,324.000 L 57.500,323.000 L 57.500,322.000 L 57.500,321.000 L 57.500,320.000 L 57.500,319.000 L 57.500,318.000 L 57.500,317.000 L 57.500,316.000 L 57.500,315.000 L 57.500,314.000 L 57.500,313.000 L 57.500,312.000 L 57.500,311.000 L 57.500,310.000 L 57.500,309.000 L 57.500,308.000 L 57.500,307.000 L 57.500,306.000 L 57.500,305.000 L 57.500,304.000 L 57.500,303.000 L 57.500,302.000 L 57.500,301.000 L 57.500,300.000 L 57.500,299.000 L 57.500,298.000 L 57.500,297.000 L 57.500,296.000 L 57.500,295.000 L 57.500,294.000 L 57.500,293.000 L 57.500,292.000 L 57.500,291.000 L 57.500,290.000 L 57.500,289.000 L 57.500,288.000 L 57.500,287.000 L 57.500,286.000 L 57.500,285.000 L 57.500,284.000 L 57.500,283.000 L 57.500,282.000 L 57.500,281.000 L 57.500,280.000 L 57.500,279.000 L 57.500,278.000 L 57.500,277.000 L 57.500,276.000 L 57.500,275.000 L 57.500,274.000 L 57.500,273.000 L 57.500,272.000 L 57.500,271.000 L 57.500,270.000 L 57.500,269.000 L 57.500,268.000 L 57.500,267.000 L 57.500,266.000 L 57.500,265.000 L 57.500,264.000 L 57.500,263.000 L 57.500,262.000 L 57.500,261.000 L 57.500,260.000 L 57.500,259.000 L 57.500,258.000 L 57.500,257.000 L 57.500,256.000 L 57.500,255.000 L 57.500,254.000 L 57.500,253.000 L 57.500,252.000 L 57.500,251.000 L 57.500,250.000 L 57.500,249.000 L 57.500,248.000 L 57.500,247.000 L 57.500,246.000 L 57.500,245.000 L 57.500,244.000 L 57.500,243.000 L 57.500,242.000 L 57.500,241.000 L 57.500,240.000 L 57.500,239.000 L 57.500,238.000 L 57.500,237.000 L 57.500,236.000 L 57.500,235.000 L 57.500,234.000 L 57.500,233.000 L 57.500,232.000 L 57.500,231.000 L 57.500,230.000 L 57.500,229.000 L 57.500,228.000 L 57.500,227.000 L 57.500,226.000 L 57.500,225.000 L 57.500,224.000 L 57.500,223.000 L 57.500,222.000 L 57.500,221.000 L 57.500,220.000 L 57.500,219.000 L 57.500,218.000 L 57.500,217.000 L 57.500,216.000 L 57.500,215.000 L 57.500,214.000 L 57.500,213.000 L 57.500,212.000 L 57.500,211.000 L 57.500,210.000 L 57.500,209.000 L 57.500,208.000 L 57.500,207.000 L 57.500,206.000 L 57.500,205.000 L 57.500,204.000 L 57.500,203.000 L 57.500,202.000 L 57.500,201.000 L 57.500,200.000 L 57.500,199.000 L 57.500,198.000 L 57.500,197.000 L 57.500,196.000 L 57.500,195.000 L 57.500,194.000 L 57.500,193.000 L 57.500,192.000 L 57.500,191.000 L 57.500,190.000 L 57.500,189.000 L 57.500,188.000 L 57.500,187.000 L 57.500,186.000 L 57.500,185.000 L 57.500,184.000 L 57.500,183.000 L 57.500,182.000 L 57.500,181.000 L 57.500,180.000 L 57.500,179.000 L 57.500,178.000 L 57.500,177.000 L 57.500,176.000 L 57.500,175.000 L 57.500,174.000 L 57.500,173.000 L 57.500,172.000 L 57.500,171.000 L 57.500,170.000 L 57.500,169.000 L 57.500,168.000 L 57.500,167.000 L 57.500,166.000 L 57.500,165.000 L 57.500,164.000 L 57.500,163.000 L 57.500,162.000 L 57.500,161.000 L 57.500,160.000 L 57.500,159.000 L 57.500,158.000 L 57.500,157.000 L 57.500,156.000 L 57.500,155.000 L 57.500,154.000 L 57.500,153.000 L 57.500,152.000 L 57.500,151.000 L 57.500,150.000 L 57.500,149.000 L 57.500,148.000 L 57.500,147.000 L 57.500,146.000 L 57.500,145.000 L 57.500,144.000 L 57.500,143.000 L 57.500,142.000 L 57.500,141.000 L 57.500,140.000 L 57.500,139.000 L 57.500,138.000 L 57.500,137.000 L 57.500,136.000 L 57.500,135.000 L 57.500,134.000 L 57.500,133.000 L 57.500,132.000 L 57.500,131.000 L 57.500,130.000 L 57.500,129.000 L 57.500,128.000 L 57.500,127.000 L 57.500,126.000 L 57.500,125.000 L 57.500,124.000 L 57.500,123.000 L 57.500,122.000 L 57.500,121.000 L 57.500,120.000 L 57.500,119.000 L 57.500,118.000 L 57.500,117.000 L 57.500,116.000 L 57.500,115.000 L 57.500,114.000 L 57.500,113.000 L 57.500,112.000 L 57.500,111.000 L 57.500,110.000 L 57.500,109.000 L 57.500,108.000 L 57.500,107.000 L 57.500,106.000 L 57.500,105.000 L 57.500,104.000 L 57.500,103.000 L 57.500,102.000 L 57.500,101.000 L 57.500,100.000 L 57.500,99.000 L 57.500,98.000 L 57.500,97.000 L 57.500,96.000 L 57.500,95.000 L 57.500,94.000 L 57.500,93.000 L 57.500,92.000 L 57.500,91.000 L 57.500,90.000 L 57.500,89.000 L 57.500,88.000 L 57.500,87.000 L 57.500,86.000 L 57.500,85.000 L 57.500,84.000 L 57.500,83.000 L 57.500,82.000 L 57.500,81.000 L 57.500,80.000 L 57.500,79.000 L 57.500,78.000 L 57.500,77.000 L 57.500,76.000 L 57.500,75.000 L 57.500,74.000 L 57.500,73.000 L 57.500,72.000 L 57.500,71.000 L 57.500,70.000 L 57.500,69.000 L 57.500,68.000 L 57.500,67.000 L 57.500,66.000 L 57.500,65.000 L 57.500,64.000 L 57.500,63.000 L 57.500,62.000 L 57.500,61.000 L 57.500,60.000 L 57.500,59.000 L 57.500,58.000 L 58.000,57.500 L 59.000,57.500 L 60.000,57.500 L 61.000,57.500 L 62.000,57.500 L 63.000,57.500 L 64.000,57.500 L 65.000,57.500 L 66.000,57.500 L 67.000,57.500 L 68.000,57.500 L 69.000,57.500 L 70.000,57.500 L 71.000,57.500 L 72.000,57.500 L 73.000,57.500 L 74.000,57.500 L 75.000,57.500 L 76.000,57.500 L 77.000,57.500 L 78.000,57.500 L 79.000,57.500 L 80.000,57.500 L 81.000,57.500 L 82.000,57.500 L 83.000,57.500 L 84.000,57.500 L 85.000,57.500 L 86.000,57.500 L 87.000,57.500 L 88.000,57.500 L 89.000,57.500 L 90.000,57.500 L 91.000,57.500 L 92.000,57.500 L 93.000,57.500 L 94.000,57.500 L 95.000,57.500 L 96.000,57.500 L 97.000,57.500 L 98.000,57.500 L 99.000,57.500 L 100.000,57.500 L 101.000,57.500 L 102.000,57.500 L 103.000,57.500 L 104.000,57.500 L 105.000,57.500 L 106.000,57.500 L 107.000,57.500 L 108.000,57.500 L 109.000,57.500 L 110.000,57.500 L 111.000,57.500 L 112.000,57.500 L 113.000,57.500 L 114.000,57.500 L 115.000,57.500 L 116.000,57.500 L 117.000,57.500 L 118.000,57.500 L 119.000,57.500 L 120.000,57.500 L 121.000,57.500 L 122.000,57.500 L 123.000,57.500 L 124.000,57.500 L 125.000,57.500 L 126.000,57.500 L 127.000,57.500 L 128.000,57.500 L 129.000,57.500 L 130.000,57.500 L 131.000,57.500 L 132.000,57.500 L 133.000,57.500 L 134.000,57.500 L 135.000,57.500 L 136.000,57.500 L 137.000,57.500 L 138.000,57.500 L 139.000,57.500 L 140.000,57.500 L 141.000,57.500 L 142.000,57.500 L 143.000,57.500 L 144.000,57.500 L 145.000,57.500 L 146.000,57.500 L 147.000,57.500 L 148.000,57.500 L 149.000,57.500 L 150.000,57.500 L 151.000,57.500 L 152.000,57.500 L 153.000,57.500 L 154.000,57.500 L 155.000,57.500 L 156.000,57.500 L 157.000,57.500 L 158.000,57.500 L 159.000,57.500 L 160.000,57.500 L 161.000,57.500 L 162.000,57.500 L 163.000,57.500 L 164.000,57.500 L 165.000,57.500 L 166.000,57.500 L 167.000,57.500 L 168.000,57.500 L 169.000,57.500 L 170.000,57.500 L 171.000,57.500 L 172.000,57.500 L 173.000,57.500 L 174.000,57.500 L 175.000,57.500 L 176.000,57.500 L 177.000,57.500 L 178.000,57.500 L 179.000,57.500 L 180.000,57.500 L 181.000,57.500 L 182.000,57.500 L 183.000,57.500 L 184.000,57.500 L 185.000,57.500 L 186.000,57.500 L 187.000,57.500 L 188.000,57.500 L 189.000,57.500 L 190.000,57.500 L 191.000,57.500 L 192.000,57.500 L 193.000,57.500 L 194.000,57.500 L 195.000,57.500 L 196.000,57.500 L 197.000,57.500 L 198.000,57.500 L 199.000,57.500 L 200.000,57.500 L 201.000,57.500 L 202.000,57.500 L 203.000,57.500 L 204.000,57.500 L 205.000,57.500 L 206.000,57.500 L 207.000,57.500 L 208.000,57.500 L 209.000,57.500 L 210.000,57.500 L 211.000,57.500 L 212.000,57.500 L 213.000,57.500 L 214.000,57.500 L 215.000,57.500 L 216.000,57.500 L 217.000,57.500 L 218.000,57.500 L 219.000,57.500 L 220.000,57.500 L 221.000,57.500 L 222.000,57.500 L 223.000,57.500 L 224.000,57.500 L 225.000,57.500 L 226.000,57.500 L 227.000,57.500 L 228.000,57.500 L 229.000,57.500 L 230.000,57.500 L 231.000,57.500 L 232.000,57.500 L 233.000,57.500 L 234.000,57.500 L 235.000,57.500 L 236.000,57.500 L 237.000,57.500 L 238.000,57.500 L 239.000,57.500 L 240.000,57.500 L 241.000,57.500 L 242.000,57.500 L 243.000,57.500 L 244.000,57.500 L 245.000,57.500 L 246.000,57.500 L 247.000,57.500 L 248.000,57.500 L 249.000,57.500 L 250.000,57.500 L 251.000,57.500 L 252.000,57.500 L 253.000,57.500 L 254.000,57.500 L 255.000,57.500 L 256.000,57.500 L 257.000,57.500 L 258.000,57.500 L 259.000,57.500 L 260.000,57.500 L 261.000,57.500 L 262.000,57.500 L 263.000,57.500 L 264.000,57.500 L 265.000,57.500 L 266.000,57.500 L 267.000,57.500 L 268.000,57.500 L 269.000,57.500 L 270.000,57.500 L 271.000,57.500 L 272.000,57.500 L 273.000,57.500 L 274.000,57.500 L 275.000,57.500 L 276.000,57.500 L 277.000,57.500 L 278.000,57.500 L 279.000,57.500 L 280.000,57.500 L 281.000,57.500 L 282.000,57.500 L 283.000,57.500 L 284.000,57.500 L 285.000,57.500 L 286.000,57.500 L 287.000,57.500 L 288.000,57.500 L 289.000,57.500 L 290.000,57.500 L 291.000,57.500 L 292.000,57.500 L 293.000,57.500 L 294.000,57.500 L 295.000,57.500 L 296.000,57.500 L 297.000,57.500 L 298.000,57.500 L 299.000,57.500 L 300.000,57.500 L 301.000,57.500 L 302.000,57.500 L 303.000,57.500 L 304.000,57.500 L 305.000,57.500 L 306.000,57.500 L 307.000,57.500 L 308.000,57.500 L 309.000,57.500 L 310.000,57.500 L 311.000,57.500 L 312.000,57.500 L 313.000,57.500 L 314.000,57.500 L 315.000,57.500 L 316.000,57.500 L 317.000,57.500 L 318.000,57.500 L 319.000,57.500 L 320.000,57.500 L 321.000,57.500 L 322.000,57.500 L 323.000,57.500 L 324.000,57.500 L 325.000,57.500 L 326.000,57.500 L 327.000,57.500 L 328.000,57.500 L 329.000,57.500 L 330.000,57.500 L 331.000,57.500 L 332.000,57.500 L 333.000,57.500 L 334.000,57.500 L 335.000,57.500 L 336.000,57.500 L 337.000,57.500 L 338.000,57.500 L 339.000,57.500 L 340.000,57.500 L 341.000,57.500 L 342.000,57.500 L 343.000,57.500 L 344.000,57.500 L 345.000,57.500 L 346.000,57.500 L 347.000,57.500 L 348.000,57.500 L 349.000,57.500 L 350.000,57.500 L 351.000,57.500 L 352.000,57.500 L 353.000,57.500 L 354.000,57.500 L 355.000,57.500 L 356.000,57.500 L 357.000,57.500 L 358.000,57.500 L 359.000,57.500 L 360.000,57.500 L 361.000,57.500 L 362.000,57.500 L 363.000,57.500 L 364.000,57.500 L 365.000,57.500 L 366.000,57.500 L 367.000,57.500 L 368.000,57.500 L 369.000,57.500 L 370.000,57.500 L 371.000,57.500 L 372.000,57.500 L 373.000,57.500 L 374.000,57.500 L 375.000,57.500 L 376.000,57.500 L 377.000,57.500 L 378.000,57.500 L 379.000,57.500 L 380.000,57.500 L 381.000,57.500 L 382.000,57.500 L 383.000,57.500 L 384.000,57.500 L 385.000,57.500 L 386.000,57.500 L 387.000,57.500 L 388.000,57.500 L 389.000,57.500 L 390.000,57.500 L 391.000,57.500 L 392.000,57.500 L 393.000,57.500 L 394.000,57.500 L 395.000,57.500 L 396.000,57.500 L 397.000,57.500 L 398.000,57.500 L 399.000,57.500 L 400.000,57.500 L 401.000,57.500 L 402.000,57.500 L 403.000,57.500 L 404.000,57.500 L 405.000,57.500 L 406.000,57.500 L 407.000,57.500 L 408.000,57.500 L 409.000,57.500 L 410.000,57.500 L 411.000,57.500 L 412.000,57.500 L 413.000,57.500 L 414.000,57.500 L 415.000,57.500 L 416.000,57.500 L 417.000,57.500 L 418.000,57.500 L 419.000,57.500 L 420.000,57.500 L 421.000,57.500 L 422.000,57.500 L 423.000,57.500 L 424.000,57.500 L 425.000,57.500 L 426.000,57.500 L 427.000,57.500 L 428.000,57.500 L 429.000,57.500 L 430.000,57.500 L 431.000,57.500 L 432.000,57.500 L 433.000,57.500 L 434.000,57.500 L 435.000,57.500 L 436.000,57.500 L 437.000,57.500 L 438.000,57.500 L 439.000,57.500 L 440.000,57.500 L 441.000,57.500 L 442.000,57.500 L 443.000,57.500 L 444.000,57.500 L 445.000,57.500 L 446.000,57.500 L 447.000,57.500 L 448.000,57.500 L 449.000,57.500 L 450.000,57.500 L 451.000,57.500 L 452.000,57.500 L 453.000,57.500 L 453.500,58.000 L 453.500,59.000 L 453.000,59.500 L 452.500,60.000 L 452.000,60.500 L 451.500,61.000 L 451.000,61.500 L 450.500,62.000 L 450.000,62.500 L 449.500,63.000 L 449.000,63.500 L 448.500,64.000 L 448.000,64.500 L 447.500,65.000 L 447.000,65.500 L 446.500,66.000 L 446.000,66.500 L 445.500,67.000 L 445.000,67.500 L 444.500,68.000 L 444.000,68.500 L 443.500,69.000 L 443.000,69.500 L 442.500,70.000 L 442.000,70.500 L 441.500,71.000 L 441.000,71.500 L 440.500,72.000 L 440.000,72.500 L 439.500,73.000 L 439.000,73.500 L 438.500,74.000 L 438.000,74.500 L 437.500,75.000 L 437.000,75.500 L 436.500,76.000 L 436.000,76.500 L 435.500,77.000 L 435.000,77.500 L 434.500,78.000 L 434.000,78.500 L 433.500,79.000 L 433.000,79.500 L 432.500,80.000 L 432.000,80.500 L 431.500,81.000 L 431.000,81.500 L 430.500,82.000 L 430.000,82.500 L 429.500,83.000 L 429.000,83.500 L 428.500,84.000 L 428.000,84.500 L 427.500,85.000 L 427.000,85.500 L 426.500,86.000 L 426.000,86.500 L 425.500,87.000 L 425.000,87.500 L 424.500,88.000 L 424.000,88.500 L 423.500,89.000 L 423.000,89.500 L 422.500,90.000 L 422.000,90.500 L 421.500,91.000 L 421.000,91.500 L 420.500,92.000 L 420.000,92.500 L 419.500,93.000 L 419.000,93.500 L 418.500,94.000 L 418.000,94.500 L 417.500,95.000 L 417.000,95.500 L 416.500,96.000 L 416.000,96.500 L 415.500,97.000 L 415.000,97.500 L 414.500,98.000 L 414.000,98.500 L 413.500,99.000 L 413.000,99.500 L 412.500,100.000 L 412.000,100.500 L 411.500,101.000 L 411.000,101.500 L 410.500,102.000 L 410.000,102.500 L 409.500,103.000 L 409.000,103.500 L 408.500,104.000 L 408.000,104.500 L 407.500,105.000 L 407.000,105.500 L 406.500,106.000 L 406.000,106.500 L 405.500,107.000 L 405.000,107.500 L 404.500,108.000 L 404.000,108.500 L 403.500,109.000 L 403.500,110.000 L 403.500,111.000 L 403.500,112.000 L 403.500,113.000 L 403.500,114.000 L 403.500,115.000 L 403.500,116.000 L 403.500,117.000 L 403.500,118.000 L 403.500,119.000 L 403.500,120.000 L 403.500,121.000 L 403.500,122.000 L 403.500,123.000 L 403.500,124.000 L 403.500,125.000 L 403.500,126.000 L 403.500,127.000 L 403.500,128.000 L 403.500,129.000 L 403.500,130.000 L 403.500,131.000 L 403.500,132.000 L 403.500,133.000 L 403.500,134.000 L 403.500,135.000 L 403.500,136.000 L 403.500,137.000 L 403.500,138.000 L 403.500,139.000 L 403.500,140.000 L 403.500,141.000 L 403.500,142.000 L 403.500,143.000 L 403.500,144.000 L 403.500,145.000 L 403.500,146.000 L 403.500,147.000 L 403.500,148.000 L 403.500,149.000 L 403.500,150.000 L 403.500,151.000 L 403.500,152.000 L 403.500,153.000 L 403.500,154.000 L 403.500,155.000 L 403.500,156.000 L 403.500,157.000 L 403.500,158.000 L 403.500,159.000 L 403.500,160.000 L 403.500,161.000 L 403.500,162.000 L 403.500,163.000 L 403.500,164.000 L 403.500,165.000 L 403.500,166.000 L 403.500,167.000 L 403.500,168.000 L 403.500,169.000 L 403.500,170.000 L 403.500,171.000 L 403.500,172.000 L 403.500,173.000 L 403.500,174.000 L 403.500,175.000 L 403.500,176.000 L 403.500,177.000 L 403.500,178.000 L 403.500,179.000 L 403.500,180.000 L 403.500,181.000 L 403.500,182.000 L 403.500,183.000 L 403.500,184.000 L 403.500,185.000 L 403.500,186.000 L 403.500,187.000 L 403.500,188.000 L 403.500,189.000 L 403.500,190.000 L 403.500,191.000 L 403.500,192.000 L 403.500,193.000 L 403.500,194.000 L 403.500,195.000 L 403.500,196.000 L 403.500,197.000 L 403.500,198.000 L 403.500,199.000 L 403.500,200.000 L 403.500,201.000 L 403.500,202.000 L 403.500,203.000 L 403.500,204.000 L 403.500,205.000 L 403.500,206.000 L 403.500,207.000 L 403.500,208.000 L 403.500,209.000 L 403.500,210.000 L 403.500,211.000 L 403.500,212.000 L 403.500,213.000 L 403.500,214.000 L 403.500,215.000 L 403.500,216.000 L 403.500,217.000 L 403.500,218.000 L 403.500,219.000 L 403.500,220.000 L 403.500,221.000 L 403.500,222.000 L 403.500,223.000 L 403.500,224.000 L 403.500,225.000 L 403.500,226.000 L 403.500,227.000 L 403.500,228.000 L 403.500,229.000 L 403.500,230.000 L 403.500,231.000 L 403.500,232.000 L 403.500,233.000 L 403.500,234.000 L 403.500,235.000 L 403.500,236.000 L 403.500,237.000 L 403.500,238.000 L 403.500,239.000 L 403.500,240.000 L 403.500,241.000 L 403.500,242.000 L 403.500,243.000 L 403.500,244.000 L 403.500,245.000 L 403.500,246.000 L 403.500,247.000 L 403.500,248.000 L 403.500,249.000 L 403.500,250.000 L 403.500,251.000 L 403.500,252.000 L 403.500,253.000 L 403.500,254.000 L 403.500,255.000 L 403.500,256.000 L 403.500,257.000 L 403.500,258.000 L 403.500,259.000 L 403.500,260.000 L 403.500,261.000 L 403.500,262.000 L 403.500,263.000 L 403.500,264.000 L 403.500,265.000 L 403.500,266.000 L 403.500,267.000 L 403.500,268.000 L 403.500,269.000 L 403.500,270.000 L 403.500,271.000 L 403.500,272.000 L 403.500,273.000 L 403.500,274.000 L 403.500,275.000 L 403.500,276.000 L 403.500,277.000 L 403.500,278.000 L 403.500,279.000 L 403.500,280.000 L 403.500,281.000 L 403.500,282.000 L 403.500,283.000 L 403.500,284.000 L 403.500,285.000 L 403.500,286.000 L 403.500,287.000 L 403.500,288.000 L 403.500,289.000 L 403.500,290.000 L 403.500,291.000 L 403.500,292.000 L 403.500,293.000 L 403.500,294.000 L 403.500,295.000 L 403.500,296.000 L 403.500,297.000 L 403.500,298.000 L 403.500,299.000 L 403.500,300.000 L 403.500,301.000 L 403.500,302.000 L 403.500,303.000 L 403.500,304.000 L 403.500,305.000 L 403.500,306.000 L 403.500,307.000 L 403.500,308.000 L 403.500,309.000 L 403.500,310.000 L 403.500,311.000 L 403.500,312.000 L 403.500,313.000 L 403.500,314.000 L 403.500,315.000 L 403.500,316.000 L 403.500,317.000 L 403.500,318.000 L 403.500,319.000 L 403.500,320.000 L 403.500,321.000 L 403.500,322.000 L 403.500,323.000 L 403.500,324.000 L 403.500,325.000 L 403.500,326.000 L 403.500,327.000 L 403.500,328.000 L 403.500,329.000 L 403.500,330.000 L 403.500,331.000 L 403.500,332.000 L 403.500,333.000 L 403.500,334.000 L 403.500,335.000 L 403.500,336.000 L 403.500,337.000 L 403.500,338.000 L 403.500,339.000 L 403.500,340.000 L 403.500,341.000 L 403.500,342.000 L 403.500,343.000 L 403.500,344.000 L 403.500,345.000 L 403.500,346.000 L 403.500,347.000 L 403.500,348.000 L 403.500,349.000 L 403.500,350.000 L 403.500,351.000 L 403.500,352.000 L 403.500,353.000 L 403.500,354.000 L 403.500,355.000 L 403.500,356.000 L 403.500,357.000 L 403.500,358.000 L 403.500,359.000 L 403.500,360.000 L 403.500,361.000 L 403.500,362.000 L 403.500,363.000 L 403.500,364.000 L 403.500,365.000 L 403.500,366.000 L 403.500,367.000 L 403.500,368.000 L 403.500,369.000 L 403.500,370.000 L 403.500,371.000 L 403.500,372.000 L 403.500,373.000 L 403.500,374.000 L 403.500,375.000 L 403.500,376.000 L 403.500,377.000 L 403.500,378.000 L 403.500,379.000 L 403.500,380.000 L 403.500,381.000 L 403.500,382.000 L 403.500,383.000 L 403.500,384.000 L 403.500,385.000 L 403.500,386.000 L 403.500,387.000 L 403.500,388.000 L 403.500,389.000 L 403.500,390.000 L 403.500,391.000 L 403.500,392.000 L 403.500,393.000 L 403.500,394.000 L 403.500,395.000 L 403.500,396.000 L 403.500,397.000 L 403.500,398.000 L 403.500,399.000 L 403.500,400.000 L 403.500,401.000 L 403.500,402.000 L 403.500,403.000 L 403.000,403.500 L 402.000,403.500 L 401.000,403.500 L 400.000,403.500 L 399.000,403.500 L 398.000,403.500 L 397.000,403.500 L 396.000,403.500 L 395.000,403.500 L 394.000,403.500 L 393.000,403.500 L 392.000,403.500 L 391.000,403.500 L 390.000,403.500 L 389.000,403.500 L 388.000,403.500 L 387.000,403.500 L 386.000,403.500 L 385.000,403.500 L 384.000,403.500 L 383.000,403.500 L 382.000,403.500 L 381.000,403.500 L 380.000,403.500 L 379.000,403.500 L 378.000,403.500 L 377.000,403.500 L 376.000,403.500 L 375.000,403.500 L 374.000,403.500 L 373.000,403.500 L 372.000,403.500 L 371.000,403.500 L 370.000,403.500 L 369.000,403.500 L 368.000,403.500 L 367.000,403.500 L 366.000,403.500 L 365.000,403.500 L 364.000,403.500 L 363.000,403.500 L 362.000,403.500 L 361.000,403.500 L 360.000,403.500 L 359.000,403.500 L 358.000,403.500 L 357.000,403.500 L 356.000,403.500 L 355.000,403.500 L 354.000,403.500 L 353.000,403.500 L 352.000,403.500 L 351.000,403.500 L 350.000,403.500 L 349.000,403.500 L 348.000,403.500 L 347.000,403.500 L 346.000,403.500 L 345.000,403.500 L 344.000,403.500 L 343.000,403.500 L 342.000,403.500 L 341.000,403.500 L 340.000,403.500 L 339.000,403.500 L 338.000,403.500 L 337.000,403.500 L 336.000,403.500 L 335.000,403.500 L 334.000,403.500 L 333.000,403.500 L 332.000,403.500 L 331.000,403.500 L 330.000,403.500 L 329.000,403.500 L 328.000,403.500 L 327.000,403.500 L 326.000,403.500 L 325.000,403.500 L 324.000,403.500 L 323.000,403.500 L 322.000,403.500 L 321.000,403.500 L 320.000,403.500 L 319.000,403.500 L 318.000,403.500 L 317.000,403.500 L 316.000,403.500 L 315.000,403.500 L 314.000,403.500 L 313.000,403.500 L 312.000,403.500 L 311.000,403.500 L 310.000,403.500 L 309.000,403.500 L 308.000,403.500 L 307.000,403.500 L 306.000,403.500 L 305.000,403.500 L 304.000,403.500 L 303.000,403.500 L 302.000,403.500 L 301.000,403.500 L 300.000,403.500 L 299.000,403.500 L 298.000,403.500 L 297.000,403.500 L 296.000,403.500 L 295.000,403.500 L 294.000,403.500 L 293.000,403.500 L 292.000,403.500 L 291.000,403.500 L 290.000,403.500 L 289.000,403.500 L 288.000,403.500 L 287.000,403.500 L 286.000,403.500 L 285.000,403.500 L 284.000,403.500 L 283.000,403.500 L 282.000,403.500 L 281.000,403.500 L 280.000,403.500 L 279.000,403.500 L 278.000,403.500 L 277.000,403.500 L 276.000,403.500 L 275.000,403.500 L 274.000,403.500 L 273.000,403.500 L 272.000,403.500 L 271.000,403.500 L 270.000,403.500 L 269.000,403.500 L 268.000,403.500 L 267.000,403.500 L 266.000,403.500 L 265.000,403.500 L 264.000,403.500 L 263.000,403.500 L 262.000,403.500 L 261.000,403.500 L 260.000,403.500 L 259.000,403.500 L 258.000,403.500 L 257.000,403.500 L 256.000,403.500 L 255.000,403.500 L 254.000,403.500 L 253.000,403.500 L 252.000,403.500 L 251.000,403.500 L 250.000,403.500 L 249.000,403.500 L 248.000,403.500 L 247.000,403.500 L 246.000,403.500 L 245.000,403.500 L 244.000,403.500 L 243.000,403.500 L 242.000,403.500 L 241.000,403.500 L 240.000,403.500 L 239.000,403.500 L 238.000,403.500 L 237.000,403.500 L 236.000,403.500 L 235.000,403.500 L 234.000,403.500 L 233.000,403.500 L 232.000,403.500 L 231.000,403.500 L 230.000,403.500 L 229.000,403.500 L 228.000,403.500 L 227.000,403.500 L 226.000,403.500 L 225.000,403.500 L 224.000,403.500 L 223.000,403.500 L 222.000,403.500 L 221.000,403.500 L 220.000,403.500 L 219.000,403.500 L 218.000,403.500 L 217.000,403.500 L 216.000,403.500 L 215.000,403.500 L 214.000,403.500 L 213.000,403.500 L 212.000,403.500 L 211.000,403.500 L 210.000,403.500 L 209.000,403.500 L 208.000,403.500 L 207.000,403.500 L 206.000,403.500 L 205.000,403.500 L 204.000,403.500 L 203.000,403.500 L 202.000,403.500 L 201.000,403.500 L 200.000,403.500 L 199.000,403.500 L 198.000,403.500 L 197.000,403.500 L 196.000,403.500 L 195.000,403.500 L 194.000,403.500 L 193.000,403.500 L 192.000,403.500 L 191.000,403.500 L 190.000,403.500 L 189.000,403.500 L 188.000,403.500 L 187.000,403.500 L 186.000,403.500 L 185.000,403.500 L 184.000,403.500 L 183.000,403.500 L 182.000,403.500 L 181.000,403.500 L 180.000,403.500 L 179.000,403.500 L 178.000,403.500 L 177.000,403.500 L 176.000,403.500 L 175.000,403.500 L 174.000,403.500 L 173.000,403.500 L 172.000,403.500 L 171.000,403.500 L 170.000,403.500 L 169.000,403.500 L 168.000,403.500 L 167.000,403.500 L 166.000,403.500 L 165.000,403.500 L 164.000,403.500 L 163.000,403.500 L 162.000,403.500 L 161.000,403.500 L 160.000,403.500 L 159.000,403.500 L 158.000,403.500 L 157.000,403.500 L 156.000,403.500 L 155.000,403.500 L 154.000,403.500 L 153.000,403.500 L 152.000,403.500 L 151.000,403.500 L 150.000,403.500 L 149.000,403.500 L 148.000,403.500 L 147.000,403.500 L 146.000,403.500 L 145.000,403.500 L 144.000,403.500 L 143.000,403.500 L 142.000,403.500 L 141.000,403.500 L 140.000,403.500 L 139.000,403.500 L 138.000,403.500 L 137.000,403.500 L 136.000,403.500 L 135.000,403.500 L 134.000,403.500 L 133.000,403.500 L 132.000,403.500 L 131.000,403.500 L 130.000,403.500 L 129.000,403.500 L 128.000,403.500 L 127.000,403.500 L 126.000,403.500 L 125.000,403.500 L 124.000,403.500 L 123.000,403.500 L 122.000,403.500 L 121.000,403.500 L 120.000,403.500 L 119.000,403.500 L 118.000,403.500 L 117.000,403.500 L 116.000,403.500 L 115.000,403.500 L 114.000,403.500 L 113.000,403.500 L 112.000,403.500 L 111.000,403.500 L 110.000,403.500 L 109.000,403.500 L 108.500,404.000 L 108.000,404.500 L 107.500,405.000 L 107.000,405.500 L 106.500,406.000 L 106.000,406.500 L 105.500,407.000 L 105.000,407.500 L 104.500,408.000 L 104.000,408.500 L 103.500,409.000 L 103.000,409.500 L 102.500,410.000 L 102.000,410.500 L 101.500,411.000 L 101.000,411.500 L 100.500,412.000 L 100.000,412.500 L 99.500,413.000 L 99.000,413.500 L 98.500,414.000 L 98.000,414.500 L 97.500,415.000 L 97.000,415.500 L 96.500,416.000 L 96.000,416.500 L 95.500,417.000 L 95.000,417.500 L 94.500,418.000 L 94.000,418.500 L 93.500,419.000 L 93.000,419.500 L 92.500,420.000 L 92.000,420.500 L 91.500,421.000 L 91.000,421.500 L 90.500,422.000 L 90.000,422.500 L 89.500,423.000 L 89.000,423.500 L 88.500,424.000 L 88.000,424.500 L 87.500,425.000 L 87.000,425.500 L 86.500,426.000 L 86.000,426.500 L 85.500,427.000 L 85.000,427.500 L 84.500,428.000 L 84.000,428.500 L 83.500,429.000 L 83.000,429.500 L 82.500,430.000 L 82.000,430.500 L 81.500,431.000 L 81.000,431.500 L 80.500,432.000 L 80.000,432.500 L 79.500,433.000 L 79.000,433.500 L 78.500,434.000 L 78.000,434.500 L 77.500,435.000 L 77.000,435.500 L 76.500,436.000 L 76.000,436.500 L 75.500,437.000 L 75.000,437.500 L 74.500,438.000 L 74.000,438.500 L 73.500,439.000 L 73.000,439.500 L 72.500,440.000 L 72.000,440.500 L 71.500,441.000 L 71.000,441.500 L 70.500,442.000 L 70.000,442.500 L 69.500,443.000 L 69.000,443.500 L 68.500,444.000 L 68.000,444.500 L 67.500,445.000 L 67.000,445.500 L 66.500,446.000 L 66.000,446.500 L 65.500,447.000 L 65.000,447.500 L 64.500,448.000 L 64.000,448.500 L 63.500,449.000 L 63.000,449.500 L 62.500,450.000 L 62.000,450.500 L 61.500,451.000 L 61.000,451.500 L 60.500,452.000 L 60.000,452.500 L 59.500,453.000 L 59.000,453.500 Z M 110.500,399.000 L 111.000,398.500 L 111.500,398.000 L 112.000,397.500 L 112.500,397.000 L 113.000,396.500 L 113.500,396.000 L 114.000,395.500 L 114.500,395.000 L 115.000,394.500 L 115.500,394.000 L 116.000,393.500 L 116.500,393.000 L 117.000,392.500 L 117.500,392.000 L 118.000,391.500 L 118.500,391.000 L 119.000,390.500 L 119.500,390.000 L 120.000,389.500 L 120.500,389.000 L 121.000,388.500 L 121.500,388.000 L 122.000,387.500 L 122.500,387.000 L 123.000,386.500 L 123.500,386.000 L 124.000,385.500 L 124.500,385.000 L 125.000,384.500 L 125.500,384.000 L 126.000,383.500 L 126.500,383.000 L 127.000,382.500 L 127.500,382.000 L 128.000,381.500 L 128.500,381.000 L 129.000,380.500 L 129.500,380.000 L 130.000,379.500 L 130.500,379.000 L 131.000,378.500 L 131.500,378.000 L 132.000,377.500 L 132.500,377.000 L 133.000,376.500 L 133.500,376.000 L 134.000,375.500 L 134.500,375.000 L 135.000,374.500 L 135.500,374.000 L 136.000,373.500 L 136.500,373.000 L 137.000,372.500 L 137.500,372.000 L 138.000,371.500 L 138.500,371.000 L 139.000,370.500 L 139.500,370.000 L 140.000,369.500 L 140.500,369.000 L 141.000,368.500 L 141.500,368.000 L 142.000,367.500 L 142.500,367.000 L 143.000,366.500 L 143.500,366.000 L 144.000,365.500 L 144.500,365.000 L 145.000,364.500 L 145.500,364.000 L 146.000,363.500 L 146.500,363.000 L 147.000,362.500 L 147.500,362.000 L 148.000,361.500 L 148.500,361.000 L 149.000,360.500 L 149.500,360.000 L 150.000,359.500 L 150.500,359.000 L 151.000,358.500 L 151.500,358.000 L 152.000,357.500 L 152.500,357.000 L 152.500,356.000 L 152.500,355.000 L 152.500,354.000 L 152.500,353.000 L 152.500,352.000 L 152.500,351.000 L 152.500,350.000 L 152.500,349.000 L 152.500,348.000 L 152.500,347.000 L 152.500,346.000 L 152.500,345.000 L 152.500,344.000 L 152.500,343.000 L 152.500,342.000 L 152.500,341.000 L 152.500,340.000 L 152.500,339.000 L 152.500,338.000 L 152.500,337.000 L 152.500,336.000 L 152.500,335.000 L 152.500,334.000 L 152.500,333.000 L 152.500,332.000 L 152.500,331.000 L 152.500,330.000 L 152.500,329.000 L 152.500,328.000 L 152.500,327.000 L 152.500,326.000 L 152.500,325.000 L 152.500,324.000 L 152.500,323.000 L 152.500,322.000 L 152.500,321.000 L 152.500,320.000 L 152.500,319.000 L 152.500,318.000 L 152.500,317.000 L 152.500,316.000 L 152.500,315.000 L 152.500,314.000 L 152.500,313.000 L 152.500,312.000 L 152.500,311.000 L 152.500,310.000 L 152.500,309.000 L 152.500,308.000 L 152.500,307.000 L 152.500,306.000 L 152.500,305.000 L 152.500,304.000 L 152.500,303.000 L 152.500,302.000 L 152.500,301.000 L 152.500,300.000 L 152.500,299.000 L 152.500,298.000 L 152.500,297.000 L 152.500,296.000 L 152.500,295.000 L 152.500,294.000 L 152.500,293.000 L 152.500,292.000 L 152.500,291.000 L 152.500,290.000 L 152.500,289.000 L 152.500,288.000 L 152.500,287.000 L 152.500,286.000 L 152.500,285.000 L 152.500,284.000 L 152.500,283.000 L 152.500,282.000 L 152.500,281.000 L 152.500,280.000 L 152.500,279.000 L 152.500,278.000 L 152.500,277.000 L 152.500,276.000 L 152.500,275.000 L 152.500,274.000 L 152.500,273.000 L 152.500,272.000 L 152.500,271.000 L 152.500,270.000 L 152.500,269.000 L 152.500,268.000 L 152.500,267.000 L 152.500,266.000 L 152.500,265.000 L 152.500,264.000 L 152.500,263.000 L 152.500,262.000 L 152.500,261.000 L 152.500,260.000 L 152.500,259.000 L 152.500,258.000 L 152.500,257.000 L 152.500,256.000 L 152.500,255.000 L 152.500,254.000 L 152.500,253.000 L 152.500,252.000 L 152.500,251.000 L 152.500,250.000 L 152.500,249.000 L 152.500,248.000 L 152.500,247.000 L 152.500,246.000 L 152.500,245.000 L 152.500,244.000 L 152.500,243.000 L 152.500,242.000 L 152.500,241.000 L 152.500,240.000 L 152.500,239.000 L 152.500,238.000 L 152.500,237.000 L 152.500,236.000 L 152.500,235.000 L 152.500,234.000 L 152.500,233.000 L 152.500,232.000 L 152.500,231.000 L 152.500,230.000 L 152.500,229.000 L 152.500,228.000 L 152.500,227.000 L 152.500,226.000 L 152.500,225.000 L 152.500,224.000 L 152.500,223.000 L 152.500,222.000 L 152.500,221.000 L 152.500,220.000 L 152.500,219.000 L 152.500,218.000 L 152.500,217.000 L 152.500,216.000 L 152.500,215.000 L 152.500,214.000 L 152.500,213.000 L 152.500,212.000 L 152.500,211.000 L 152.500,210.000 L 152.500,209.000 L 152.500,208.000 L 152.500,207.000 L 152.500,206.000 L 152.500,205.000 L 152.500,204.000 L 152.500,203.000 L 152.500,202.000 L 152.500,201.000 L 152.500,200.000 L 152.500,199.000 L 152.500,198.000 L 152.500,197.000 L 152.500,196.000 L 152.500,195.000 L 152.500,194.000 L 152.500,193.000 L 152.500,192.000 L 152.500,191.000 L 152.500,190.000 L 152.500,189.000 L 152.500,188.000 L 152.500,187.000 L 152.500,186.000 L 152.500,185.000 L 152.500,184.000 L 152.500,183.000 L 152.500,182.000 L 152.500,181.000 L 152.500,180.000 L 152.500,179.000 L 152.500,178.000 L 152.500,177.000 L 152.500,176.000 L 152.500,175.000 L 152.500,174.000 L 152.500,173.000 L 152.500,172.000 L 152.500,171.000 L 152.500,170.000 L 152.500,169.000 L 152.500,168.000 L 152.500,167.000 L 152.500,166.000 L 152.500,165.000 L 152.500,164.000 L 152.500,163.000 L 152.500,162.000 L 152.500,161.000 L 152.500,160.000 L 152.500,159.000 L 152.500,158.000 L 152.500,157.000 L 152.500,156.000 L 152.500,155.000 L 152.500,154.000 L 152.500,153.000 L 153.000,152.500 L 154.000,152.500 L 155.000,152.500 L 156.000,152.500 L 157.000,152.500 L 158.000,152.500 L 159.000,152.500 L 160.000,152.500 L 161.000,152.500 L 162.000,152.500 L 163.000,152.500 L 164.000,152.500 L 165.000,152.500 L 166.000,152.500 L 167.000,152.500 L 168.000,152.500 L 169.000,152.500 L 170.000,152.500 L 171.000,152.500 L 172.000,152.500 L 173.000,152.500 L 174.000,152.500 L 175.000,152.500 L 176.000,152.500 L 177.000,152.500 L 178.000,152.500 L 179.000,152.500 L 180.000,152.500 L 181.000,152.500 L 182.000,152.500 L 183.000,152.500 L 184.000,152.500 L 185.000,152.500 L 186.000,152.500 L 187.000,152.500 L 188.000,152.500 L 189.000,152.500 L 190.000,152.500 L 191.000,152.500 L 192.000,152.500 L 193.000,152.500 L 194.000,152.500 L 195.000,152.500 L 196.000,152.500 L 197.000,152.500 L 198.000,152.500 L 199.000,152.500 L 200.000,152.500 L 201.000,152.500 L 202.000,152.500 L 203.000,152.500 L 204.000,152.500 L 205.000,152.500 L 206.000,152.500 L 207.000,152.500 L 208.000,152.500 L 209.000,152.500 L 210.000,152.500 L 211.000,152.500 L 212.000,152.500 L 213.000,152.500 L 214.000,152.500 L 215.000,152.500 L 216.000,152.500 L 217.000,152.500 L 218.000,152.500 L 219.000,152.500 L 220.000,152.500 L 221.000,152.500 L 222.000,152.500 L 223.000,152.500 L 224.000,152.500 L 225.000,152.500 L 226.000,152.500 L 227.000,152.500 L 228.000,152.500 L 229.000,152.500 L 230.000,152.500 L 231.000,152.500 L 232.000,152.500 L 233.000,152.500 L 234.000,152.500 L 235.000,152.500 L 236.000,152.500 L 237.000,152.500 L 238.000,152.500 L 239.000,152.500 L 240.000,152.500 L 241.000,152.500 L 242.000,152.500 L 243.000,152.500 L 244.000,152.500 L 245.000,152.500 L 246.000,152.500 L 247.000,152.500 L 248.000,152.500 L 249.000,152.500 L 250.000,152.500 L 251.000,152.500 L 252.000,152.500 L 253.000,152.500 L 254.000,152.500 L 255.000,152.500 L 256.000,152.500 L 257.000,152.500 L 258.000,152.500 L 259.000,152.500 L 260.000,152.500 L 261.000,152.500 L 262.000,152.500 L 263.000,152.500 L 264.000,152.500 L 265.000,152.500 L 266.000,152.500 L 267.000,152.500 L 268.000,152.500 L 269.000,152.500 L 270.000,152.500 L 271.000,152.500 L 272.000,152.500 L 273.000,152.500 L 274.000,152.500 L 275.000,152.500 L 276.000,152.500 L 277.000,152.500 L 278.000,152.500 L 279.000,152.500 L 280.000,152.500 L 281.000,152.500 L 282.000,152.500 L 283.000,152.500 L 284.000,152.500 L 285.000,152.500 L 286.000,152.500 L 287.000,152.500 L 288.000,152.500 L 289.000,152.500 L 290.000,152.500 L 291.000,152.500 L 292.000,152.500 L 293.000,152.500 L 294.000,152.500 L 295.000,152.500 L 296.000,152.500 L 297.000,152.500 L 298.000,152.500 L 299.000,152.500 L 300.000,152.500 L 301.000,152.500 L 302.000,152.500 L 303.000,152.500 L 304.000,152.500 L 305.000,152.500 L 306.000,152.500 L 307.000,152.500 L 308.000,152.500 L 309.000,152.500 L 310.000,152.500 L 311.000,152.500 L 312.000,152.500 L 313.000,152.500 L 314.000,152.500 L 315.000,152.500 L 316.000,152.500 L 317.000,152.500 L 318.000,152.500 L 319.000,152.500 L 320.000,152.500 L 321.000,152.500 L 322.000,152.500 L 323.000,152.500 L 324.000,152.500 L 325.000,152.500 L 326.000,152.500 L 327.000,152.500 L 328.000,152.500 L 329.000,152.500 L 330.000,152.500 L 331.000,152.500 L 332.000,152.500 L 333.000,152.500 L 334.000,152.500 L 335.000,152.500 L 336.000,152.500 L 337.000,152.500 L 338.000,152.500 L 339.000,152.500 L 340.000,152.500 L 341.000,152.500 L 342.000,152.500 L 343.000,152.500 L 344.000,152.500 L 345.000,152.500 L 346.000,152.500 L 347.000,152.500 L 348.000,152.500 L 349.000,152.500 L 350.000,152.500 L 351.000,152.500 L 352.000,152.500 L 353.000,152.500 L 354.000,152.500 L 355.000,152.500 L 356.000,152.500 L 357.000,152.500 L 357.500,152.000 L 358.000,151.500 L 358.500,151.000 L 359.000,150.500 L 359.500,150.000 L 360.000,149.500 L 360.500,149.000 L 361.000,148.500 L 361.500,148.000 L 362.000,147.500 L 362.500,147.000 L 363.000,146.500 L 363.500,146.000 L 364.000,145.500 L 364.500,145.000 L 365.000,144.500 L 365.500,144.000 L 366.000,143.500 L 366.500,143.000 L 367.000,142.500 L 367.500,142.000 L 368.000,141.500 L 368.500,141.000 L 369.000,140.500 L 369.500,140.000 L 370.000,139.500 L 370.500,139.000 L 371.000,138.500 L 371.500,138.000 L 372.000,137.500 L 372.500,137.000 L 373.000,136.500 L 373.500,136.000 L 374.000,135.500 L 374.500,135.000 L 375.000,134.500 L 375.500,134.000 L 376.000,133.500 L 376.500,133.000 L 377.000,132.500 L 377.500,132.000 L 378.000,131.500 L 378.500,131.000 L 379.000,130.500 L 379.500,130.000 L 380.000,129.500 L 380.500,129.000 L 381.000,128.500 L 381.500,128.000 L 382.000,127.500 L 382.500,127.000 L 383.000,126.500 L 383.500,126.000 L 384.000,125.500 L 384.500,125.000 L 385.000,124.500 L 385.500,124.000 L 386.000,123.500 L 386.500,123.000 L 387.000,122.500 L 387.500,122.000 L 388.000,121.500 L 388.500,121.000 L 389.000,120.500 L 389.500,120.000 L 390.000,119.500 L 390.500,119.000 L 391.000,118.500 L 391.500,118.000 L 392.000,117.500 L 392.500,117.000 L 393.000,116.500 L 393.500,116.000 L 394.000,115.500 L 394.500,115.000 L 395.000,114.500 L 395.500,114.000 L 396.000,113.500 L 396.500,113.000 L 397.000,112.500 L 397.500,112.000 L 398.000,111.500 L 398.500,111.000 L 399.000,110.500 L 399.500,110.000 L 399.000,109.500 L 398.000,109.500 L 397.000,109.500 L 396.000,109.500 L 395.000,109.500 L 394.000,109.500 L 393.000,109.500 L 392.000,109.500 L 391.000,109.500 L 390.000,109.500 L 389.000,109.500 L 388.000,109.500 L 387.000,109.500 L 386.000,109.500 L 385.000,109.500 L 384.000,109.500 L 383.000,109.500 L 382.000,109.500 L 381.000,109.500 L 380.000,109.500 L 379.000,109.500 L 378.000,109.500 L 377.000,109.500 L 376.000,109.500 L 375.000,109.500 L 374.000,109.500 L 373.000,109.500 L 372.000,109.500 L 371.000,109.500 L 370.000,109.500 L 369.000,109.500 L 368.000,109.500 L 367.000,109.500 L 366.000,109.500 L 365.000,109.500 L 364.000,109.500 L 363.000,109.500 L 362.000,109.500 L 361.000,109.500 L 360.000,109.500 L 359.000,109.500 L 358.000,109.500 L 357.000,109.500 L 356.000,109.500 L 355.000,109.500 L 354.000,109.500 L 353.000,109.500 L 352.000,109.500 L 351.000,109.500 L 350.000,109.500 L 349.000,109.500 L 348.000,109.500 L 347.000,109.500 L 346.000,109.500 L 345.000,109.500 L 344.000,109.500 L 343.000,109.500 L 342.000,109.500 L 341.000,109.500 L 340.000,109.500 L 339.000,109.500 L 338.000,109.500 L 337.000,109.500 L 336.000,109.500 L 335.000,109.500 L 334.000,109.500 L 333.000,109.500 L 332.000,109.500 L 331.000,109.500 L 330.000,109.500 L 329.000,109.500 L 328.000,109.500 L 327.000,109.500 L 326.000,109.500 L 325.000,109.500 L 324.000,109.500 L 323.000,109.500 L 322.000,109.500 L 321.000,109.500 L 320.000,109.500 L 319.000,109.500 L 318.000,109.500 L 317.000,109.500 L 316.000,109.500 L 315.000,109.500 L 314.000,109.500 L 313.000,109.500 L 312.000,109.500 L 311.000,109.500 L 310.000,109.500 L 309.000,109.500 L 308.000,109.500 L 307.000,109.500 L 306.000,109.500 L 305.000,109.500 L 304.000,109.500 L 303.000,109.500 L 302.000,109.500 L 301.000,109.500 L 300.000,109.500 L 299.000,109.500 L 298.000,109.500 L 297.000,109.500 L 296.000,109.500 L 295.000,109.500 L 294.000,109.500 L 293.000,109.500 L 292.000,109.500 L 291.000,109.500 L 290.000,109.500 L 289.000,109.500 L 288.000,109.500 L 287.000,109.500 L 286.000,109.500 L 285.000,109.500 L 284.000,109.500 L 283.000,109.500 L 282.000,109.500 L 281.000,109.500 L 280.000,109.500 L 279.000,109.500 L 278.000,109.500 L 277.000,109.500 L 276.000,109.500 L 275.000,109.500 L 274.000,109.500 L 273.000,109.500 L 272.000,109.500 L 271.000,109.500 L 270.000,109.500 L 269.000,109.500 L 268.000,109.500 L 267.000,109.500 L 266.000,109.500 L 265.000,109.500 L 264.000,109.500 L 263.000,109.500 L 262.000,109.500 L 261.000,109.500 L 260.000,109.500 L 259.000,109.500 L 258.000,109.500 L 257.000,109.500 L 256.000,109.500 L 255.000,109.500 L 254.000,109.500 L 253.000,109.500 L 252.000,109.500 L 251.000,109.500 L 250.000,109.500 L 249.000,109.500 L 248.000,109.500 L 247.000,109.500 L 246.000,109.500 L 245.000,109.500 L 244.000,109.500 L 243.000,109.500 L 242.000,109.500 L 241.000,109.500 L 240.000,109.500 L 239.000,109.500 L 238.000,109.500 L 237.000,109.500 L 236.000,109.500 L 235.000,109.500 L 234.000,109.500 L 233.000,109.500 L 232.000,109.500 L 231.000,109.500 L 230.000,109.500 L 229.000,109.500 L 228.000,109.500 L 227.000,109.500 L 226.000,109.500 L 225.000,109.500 L 224.000,109.500 L 223.000,109.500 L 222.000,109.500 L 221.000,109.500 L 220.000,109.500 L 219.000,109.500 L 218.000,109.500 L 217.000,109.500 L 216.000,109.500 L 215.000,109.500 L 214.000,109.500 L 213.000,109.500 L 212.000,109.500 L 211.000,109.500 L 210.000,109.500 L 209.000,109.500 L 208.000,109.500 L 207.000,109.500 L 206.000,109.500 L 205.000,109.500 L 204.000,109.500 L 203.000,109.500 L 202.000,109.500 L 201.000,109.500 L 200.000,109.500 L 199.000,109.500 L 198.000,109.500 L 197.000,109.500 L 196.000,109.500 L 195.000,109.500 L 194.000,109.500 L 193.000,109.500 L 192.000,109.500 L 191.000,109.500 L 190.000,109.500 L 189.000,109.500 L 188.000,109.500 L 187.000,109.500 L 186.000,109.500 L 185.000,109.500 L 184.000,109.500 L 183.000,109.500 L 182.000,109.500 L 181.000,109.500 L 180.000,109.500 L 179.000,109.500 L 178.000,109.500 L 177.000,109.500 L 176.000,109.500 L 175.000,109.500 L 174.000,109.500 L 173.000,109.500 L 172.000,109.500 L 171.000,109.500 L 170.000,109.500 L 169.000,109.500 L 168.000,109.500 L 167.000,109.500 L 166.000,109.500 L 165.000,109.500 L 164.000,109.500 L 163.000,109.500 L 162.000,109.500 L 161.000,109.500 L 160.000,109.500 L 159.000,109.500 L 158.000,109.500 L 157.000,109.500 L 156.000,109.500 L 155.000,109.500 L 154.000,109.500 L 153.000,109.500 L 152.000,109.500 L 151.000,109.500 L 150.000,109.500 L 149.000,109.500 L 148.000,109.500 L 147.000,109.500 L 146.000,109.500 L 145.000,109.500 L 144.000,109.500 L 143.000,109.500 L 142.000,109.500 L 141.000,109.500 L 140.000,109.500 L 139.000,109.500 L 138.000,109.500 L 137.000,109.500 L 136.000,109.500 L 135.000,109.500 L 134.000,109.500 L 133.000,109.500 L 132.000,109.500 L 131.000,109.500 L 130.000,109.500 L 129.000,109.500 L 128.000,109.500 L 127.000,109.500 L 126.000,109.500 L 125.000,109.500 L 124.000,109.500 L 123.000,109.500 L 122.000,109.500 L 121.000,109.500 L 120.000,109.500 L 119.000,109.500 L 118.000,109.500 L 117.000,109.500 L 116.000,109.500 L 115.000,109.500 L 114.000,109.500 L 113.000,109.500 L 112.000,109.500 L 111.000,109.500 L 110.000,109.500 L 109.500,110.000 L 109.500,111.000 L 109.500,112.000 L 109.500,113.000 L 109.500,114.000 L 109.500,115.000 L 109.500,116.000 L 109.500,117.000 L 109.500,118.000 L 109.500,119.000 L 109.500,120.000 L 109.500,121.000 L 109.500,122.000 L 109.500,123.000 L 109.500,124.000 L 109.500,125.000 L 109.500,126.000 L 109.500,127.000 L 109.500,128.000 L 109.500,129.000 L 109.500,130.000 L 109.500,131.000 L 109.500,132.000 L 109.500,133.000 L 109.500,134.000 L 109.500,135.000 L 109.500,136.000 L 109.500,137.000 L 109.500,138.000 L 109.500,139.000 L 109.500,140.000 L 109.500,141.000 L 109.500,142.000 L 109.500,143.000 L 109.500,144.000 L 109.500,145.000 L 109.500,146.000 L 109.500,147.000 L 109.500,148.000 L 109.500,149.000 L 109.500,150.000 L 109.500,151.000 L 109.500,152.000 L 109.500,153.000 L 109.500,154.000 L 109.500,155.000 L 109.500,156.000 L 109.500,157.000 L 109.500,158.000 L 109.500,159.000 L 109.500,160.000 L 109.500,161.000 L 109.500,162.000 L 109.500,163.000 L 109.500,164.000 L 109.500,165.000 L 109.500,166.000 L 109.500,167.000 L 109.500,168.000 L 109.500,169.000 L 109.500,170.000 L 109.500,171.000 L 109.500,172.000 L 109.500,173.000 L 109.500,174.000 L 109.500,175.000 L 109.500,176.000 L 109.500,177.000 L 109.500,178.000 L 109.500,179.000 L 109.500,180.000 L 109.500,181.000 L 109.500,182.000 L 109.500,183.000 L 109.500,184.000 L 109.500,185.000 L 109.500,186.000 L 109.500,187.000 L 109.500,188.000 L 109.500,189.000 L 109.500,190.000 L 109.500,191.000 L 109.500,192.000 L 109.500,193.000 L 109.500,194.000 L 109.500,195.000 L 109.500,196.000 L 109.500,197.000 L 109.500,198.000 L 109.500,199.000 L 109.500,200.000 L 109.500,201.000 L 109.500,202.000 L 109.500,203.000 L 109.500,204.000 L 109.500,205.000 L 109.500,206.000 L 109.500,207.000 L 109.500,208.000 L 109.500,209.000 L 109.500,210.000 L 109.500,211.000 L 109.500,212.000 L 109.500,213.000 L 109.500,214.000 L 109.500,215.000 L 109.500,216.000 L 109.500,217.000 L 109.500,218.000 L 109.500,219.000 L 109.500,220.000 L 109.500,221.000 L 109.500,222.000 L 109.500,223.000 L 109.500,224.000 L 109.500,225.000 L 109.500,226.000 L 109.500,227.000 L 109.500,228.000 L 109.500,229.000 L 109.500,230.000 L 109.500,231.000 L 109.500,232.000 L 109.500,233.000 L 109.500,234.000 L 109.500,235.000 L 109.500,236.000 L 109.500,237.000 L 109.500,238.000 L 109.500,239.000 L 109.500,240.000 L 109.500,241.000 L 109.500,242.000 L 109.500,243.000 L 109.500,244.000 L 109.500,245.000 L 109.500,246.000 L 109.500,247.000 L 109.500,248.000 L 109.500,249.000 L 109.500,250.000 L 109.500,251.000 L 109.500,252.000 L 109.500,253.000 L 109.500,254.000 L 109.500,255.000 L 109.500,256.000 L 109.500,257.000 L 109.500,258.000 L 109.500,259.000 L 109.500,260.000 L 109.500,261.000 L 109.500,262.000 L 109.500,263.000 L 109.500,264.000 L 109.500,265.000 L 109.500,266.000 L 109.500,267.000 L 109.500,268.000 L 109.500,269.000 L 109.500,270.000 L 109.500,271.000 L 109.500,272.000 L 109.500,273.000 L 109.500,274.000 L 109.500,275.000 L 109.500,276.000 L 109.500,277.000 L 109.500,278.000 L 109.500,279.000 L 109.500,280.000 L 109.500,281.000 L 109.500,282.000 L 109.500,283.000 L 109.500,284.000 L 109.500,285.000 L 109.500,286.000 L 109.500,287.000 L 109.500,288.000 L 109.500,289.000 L 109.500,290.000 L 109.500,291.000 L 109.500,292.000 L 109.500,293.000 L 109.500,294.000 L 109.500,295.000 L 109.500,296.000 L 109.500,297.000 L 109.500,298.000 L 109.500,299.000 L 109.500,300.000 L 109.500,301.000 L 109.500,302.000 L 109.500,303.000 L 109.500,304.000 L 109.500,305.000 L 109.500,306.000 L 109.500,307.000 L 109.500,308.000 L 109.500,309.000 L 109.500,310.000 L 109.500,311.000 L 109.500,312.000 L 109.500,313.000 L 109.500,314.000 L 109.500,315.000 L 109.500,316.000 L 109.500,317.000 L 109.500,318.000 L 109.500,319.000 L 109.500,320.000 L 109.500,321.000 L 109.500,322.000 L 109.500,323.000 L 109.500,324.000 L 109.500,325.000 L 109.500,326.000 L 109.500,327.000 L 109.500,328.000 L 109.500,329.000 L 109.500,330.000 L 109.500,331.000 L 109.500,332.000 L 109.500,333.000 L 109.500,334.000 L 109.500,335.000 L 109.500,336.000 L 109.500,337.000 L 109.500,338.000 L 109.500,339.000 L 109.500,340.000 L 109.500,341.000 L 109.500,342.000 L 109.500,343.000 L 109.500,344.000 L 109.500,345.000 L 109.500,346.000 L 109.500,347.000 L 109.500,348.000 L 109.500,349.000 L 109.500,350.000 L 109.500,351.000 L 109.500,352.000 L 109.500,353.000 L 109.500,354.000 L 109.500,355.000 L 109.500,356.000 L 109.500,357.000 L 109.500,358.000 L 109.500,359.000 L 109.500,360.000 L 109.500,361.000 L 109.500,362.000 L 109.500,363.000 L 109.500,364.000 L 109.500,365.000 L 109.500,366.000 L 109.500,367.000 L 109.500,368.000 L 109.500,369.000 L 109.500,370.000 L 109.500,371.000 L 109.500,372.000 L 109.500,373.000 L 109.500,374.000 L 109.500,375.000 L 109.500,376.000 L 109.500,377.000 L 109.500,378.000 L 109.500,379.000 L 109.500,380.000 L 109.500,381.000 L 109.500,382.000 L 109.500,383.000 L 109.500,384.000 L 109.500,385.000 L 109.500,386.000 L 109.500,387.000 L 109.500,388.000 L 109.500,389.000 L 109.500,390.000 L 109.500,391.000 L 109.500,392.000 L 109.500,393.000 L 109.500,394.000 L 109.500,395.000 L 109.500,396.000 L 109.500,397.000 L 109.500,398.000 L 109.500,399.000 L 110.000,399.500 L 110.500,399.000 Z M 356.500,356.000 L 356.500,355.000 L 356.500,354.000 L 356.500,353.000 L 356.500,352.000 L 356.500,351.000 L 356.500,350.000 L 356.500,349.000 L 356.500,348.000 L 356.500,347.000 L 356.500,346.000 L 356.500,345.000 L 356.500,344.000 L 356.500,343.000 L 356.500,342.000 L 356.500,341.000 L 356.500,340.000 L 356.500,339.000 L 356.500,338.000 L 356.500,337.000 L 356.500,336.000 L 356.500,335.000 L 356.500,334.000 L 356.500,333.000 L 356.500,332.000 L 356.500,331.000 L 356.500,330.000 L 356.500,329.000 L 356.500,328.000 L 356.500,327.000 L 356.500,326.000 L 356.500,325.000 L 356.500,324.000 L 356.500,323.000 L 356.500,322.000 L 356.500,321.000 L 356.500,320.000 L 356.500,319.000 L 356.500,318.000 L 356.500,317.000 L 356.500,316.000 L 356.500,315.000 L 356.500,314.000 L 356.500,313.000 L 356.500,312.000 L 356.500,311.000 L 356.500,310.000 L 356.500,309.000 L 356.500,308.000 L 356.500,307.000 L 356.500,306.000 L 356.500,305.000 L 356.500,304.000 L 356.500,303.000 L 356.500,302.000 L 356.500,301.000 L 356.500,300.000 L 356.500,299.000 L 356.500,298.000 L 356.500,297.000 L 356.500,296.000 L 356.500,295.000 L 356.500,294.000 L 356.500,293.000 L 356.500,292.000 L 356.500,291.000 L 356.500,290.000 L 356.500,289.000 L 356.500,288.000 L 356.500,287.000 L 356.500,286.000 L 356.500,285.000 L 356.500,284.000 L 356.500,283.000 L 356.500,282.000 L 356.500,281.000 L 356.500,280.000 L 356.500,279.000 L 356.500,278.000 L 356.500,277.000 L 356.500,276.000 L 356.500,275.000 L 356.500,274.000 L 356.500,273.000 L 356.500,272.000 L 356.500,271.000 L 356.500,270.000 L 356.500,269.000 L 356.500,268.000 L 356.500,267.000 L 356.500,266.000 L 356.500,265.000 L 356.500,264.000 L 356.500,263.000 L 356.500,262.000 L 356.500,261.000 L 356.500,260.000 L 356.500,259.000 L 356.500,258.000 L 356.500,257.000 L 356.500,256.000 L 356.500,255.000 L 356.500,254.000 L 356.500,253.000 L 356.500,252.000 L 356.500,251.000 L 356.500,250.000 L 356.500,249.000 L 356.500,248.000 L 356.500,247.000 L 356.500,246.000 L 356.500,245.000 L 356.500,244.000 L 356.500,243.000 L 356.500,242.000 L 356.500,241.000 L 356.500,240.000 L 356.500,239.000 L 356.500,238.000 L 356.500,237.000 L 356.500,236.000 L 356.500,235.000 L 356.500,234.000 L 356.500,233.000 L 356.500,232.000 L 356.500,231.000 L 356.500,230.000 L 356.500,229.000 L 356.500,228.000 L 356.500,227.000 L 356.500,226.000 L 356.500,225.000 L 356.500,224.000 L 356.500,223.000 L 356.500,222.000 L 356.500,221.000 L 356.500,220.000 L 356.500,219.000 L 356.500,218.000 L 356.500,217.000 L 356.500,216.000 L 356.500,215.000 L 356.500,214.000 L 356.500,213.000 L 356.500,212.000 L 356.500,211.000 L 356.500,210.000 L 356.500,209.000 L 356.500,208.000 L 356.500,207.000 L 356.500,206.000 L 356.500,205.000 L 356.500,204.000 L 356.500,203.000 L 356.500,202.000 L 356.500,201.000 L 356.500,200.000 L 356.500,199.000 L 356.500,198.000 L 356.500,197.000 L 356.500,196.000 L 356.500,195.000 L 356.500,194.000 L 356.500,193.000 L 356.500,192.000 L 356.500,191.000 L 356.500,190.000 L 356.500,189.000 L 356.500,188.000 L 356.500,187.000 L 356.500,186.000 L 356.500,185.000 L 356.500,184.000 L 356.500,183.000 L 356.500,182.000 L 356.500,181.000 L 356.500,180.000 L 356.500,179.000 L 356.500,178.000 L 356.500,177.000 L 356.500,176.000 L 356.500,175.000 L 356.500,174.000 L 356.500,173.000 L 356.500,172.000 L 356.500,171.000 L 356.500,170.000 L 356.500,169.000 L 356.500,168.000 L 356.500,167.000 L 356.500,166.000 L 356.500,165.000 L 356.500,164.000 L 356.500,163.000 L 356.500,162.000 L 356.500,161.000 L 356.500,160.000 L 356.500,159.000 L 356.500,158.000 L 356.500,157.000 L 356.000,156.500 L 355.500,157.000 L 355.000,157.500 L 354.500,158.000 L 354.000,158.500 L 353.500,159.000 L 353.000,159.500 L 352.500,160.000 L 352.000,160.500 L 351.500,161.000 L 351.000,161.500 L 350.500,162.000 L 350.000,162.500 L 349.500,163.000 L 349.000,163.500 L 348.500,164.000 L 348.000,164.500 L 347.500,165.000 L 347.000,165.500 L 346.500,166.000 L 346.000,166.500 L 345.500,167.000 L 345.000,167.500 L 344.500,168.000 L 344.000,168.500 L 343.500,169.000 L 343.000,169.500 L 342.500,170.000 L 342.000,170.500 L 341.500,171.000 L 341.000,171.500 L 340.500,172.000 L 340.000,172.500 L 339.500,173.000 L 339.000,173.500 L 338.500,174.000 L 338.000,174.500 L 337.500,175.000 L 337.000,175.500 L 336.500,176.000 L 336.000,176.500 L 335.500,177.000 L 335.000,177.500 L 334.500,178.000 L 334.000,178.500 L 333.500,179.000 L 333.000,179.500 L 332.500,180.000 L 332.000,180.500 L 331.500,181.000 L 331.000,181.500 L 330.500,182.000 L 330.000,182.500 L 329.500,183.000 L 329.000,183.500 L 328.500,184.000 L 328.000,184.500 L 327.500,185.000 L 327.000,185.500 L 326.500,186.000 L 326.000,186.500 L 325.500,187.000 L 325.000,187.500 L 324.500,188.000 L 324.000,188.500 L 323.500,189.000 L 323.000,189.500 L 322.500,190.000 L 322.000,190.500 L 321.500,191.000 L 321.000,191.500 L 320.500,192.000 L 320.000,192.500 L 319.000,192.500 L 318.000,192.500 L 317.000,192.500 L 316.000,192.500 L 315.000,192.500 L 314.000,192.500 L 313.000,192.500 L 312.000,192.500 L 311.000,192.500 L 310.000,192.500 L 309.000,192.500 L 308.000,192.500 L 307.000,192.500 L 306.000,192.500 L 305.000,192.500 L 304.000,192.500 L 303.000,192.500 L 302.000,192.500 L 301.000,192.500 L 300.000,192.500 L 299.000,192.500 L 298.000,192.500 L 297.000,192.500 L 296.000,192.500 L 295.000,192.500 L 294.000,192.500 L 293.000,192.500 L 292.000,192.500 L 291.000,192.500 L 290.000,192.500 L 289.000,192.500 L 288.000,192.500 L 287.000,192.500 L 286.000,192.500 L 285.000,192.500 L 284.000,192.500 L 283.000,192.500 L 282.000,192.500 L 281.000,192.500 L 280.000,192.500 L 279.000,192.500 L 278.000,192.500 L 277.000,192.500 L 276.000,192.500 L 275.000,192.500 L 274.000,192.500 L 273.000,192.500 L 272.000,192.500 L 271.000,192.500 L 270.000,192.500 L 269.000,192.500 L 268.000,192.500 L 267.000,192.500 L 266.000,192.500 L 265.000,192.500 L 264.000,192.500 L 263.000,192.500 L 262.000,192.500 L 261.000,192.500 L 260.000,192.500 L 259.000,192.500 L 258.000,192.500 L 257.000,192.500 L 256.000,192.500 L 255.000,192.500 L 254.000,192.500 L 253.000,192.500 L 252.000,192.500 L 251.000,192.500 L 250.000,192.500 L 249.000,192.500 L 248.000,192.500 L 247.000,192.500 L 246.000,192.500 L 245.000,192.500 L 244.000,192.500 L 243.000,192.500 L 242.000,192.500 L 241.000,192.500 L 240.000,192.500 L 239.000,192.500 L 238.000,192.500 L 237.000,192.500 L 236.000,192.500 L 235.000,192.500 L 234.000,192.500 L 233.000,192.500 L 232.000,192.500 L 231.000,192.500 L 230.000,192.500 L 229.000,192.500 L 228.000,192.500 L 227.000,192.500 L 226.000,192.500 L 225.000,192.500 L 224.000,192.500 L 223.000,192.500 L 222.000,192.500 L 221.000,192.500 L 220.000,192.500 L 219.000,192.500 L 218.000,192.500 L 217.000,192.500 L 216.000,192.500 L 215.000,192.500 L 214.000,192.500 L 213.000,192.500 L 212.000,192.500 L 211.000,192.500 L 210.000,192.500 L 209.000,192.500 L 208.000,192.500 L 207.000,192.500 L 206.000,192.500 L 205.000,192.500 L 204.000,192.500 L 203.000,192.500 L 202.000,192.500 L 201.000,192.500 L 200.000,192.500 L 199.000,192.500 L 198.000,192.500 L 197.000,192.500 L 196.000,192.500 L 195.000,192.500 L 194.000,192.500 L 193.000,192.500 L 192.500,193.000 L 192.500,194.000 L 192.500,195.000 L 192.500,196.000 L 192.500,197.000 L 192.500,198.000 L 192.500,199.000 L 192.500,200.000 L 192.500,201.000 L 192.500,202.000 L 192.500,203.000 L 192.500,204.000 L 192.500,205.000 L 192.500,206.000 L 192.500,207.000 L 192.500,208.000 L 192.500,209.000 L 192.500,210.000 L 192.500,211.000 L 192.500,212.000 L 192.500,213.000 L 192.500,214.000 L 192.500,215.000 L 192.500,216.000 L 192.500,217.000 L 192.500,218.000 L 192.500,219.000 L 192.500,220.000 L 192.500,221.000 L 192.500,222.000 L 192.500,223.000 L 192.500,224.000 L 192.500,225.000 L 192.500,226.000 L 192.500,227.000 L 192.500,228.000 L 192.500,229.000 L 192.500,230.000 L 192.500,231.000 L 192.500,232.000 L 192.500,233.000 L 192.500,234.000 L 192.500,235.000 L 192.500,236.000 L 192.500,237.000 L 192.500,238.000 L 192.500,239.000 L 192.500,240.000 L 192.500,241.000 L 192.500,242.000 L 192.500,243.000 L 192.500,244.000 L 192.500,245.000 L 192.500,246.000 L 192.500,247.000 L 192.500,248.000 L 192.500,249.000 L 192.500,250.000 L 192.500,251.000 L 192.500,252.000 L 192.500,253.000 L 192.500,254.000 L 192.500,255.000 L 192.500,256.000 L 192.500,257.000 L 192.500,258.000 L 192.500,259.000 L 192.500,260.000 L 192.500,261.000 L 192.500,262.000 L 192.500,263.000 L 192.500,264.000 L 192.500,265.000 L 192.500,266.000 L 192.500,267.000 L 192.500,268.000 L 192.500,269.000 L 192.500,270.000 L 192.500,271.000 L 192.500,272.000 L 192.500,273.000 L 192.500,274.000 L 192.500,275.000 L 192.500,276.000 L 192.500,277.000 L 192.500,278.000 L 192.500,279.000 L 192.500,280.000 L 192.500,281.000 L 192.500,282.000 L 192.500,283.000 L 192.500,284.000 L 192.500,285.000 L 192.500,286.000 L 192.500,287.000 L 192.500,288.000 L 192.500,289.000 L 192.500,290.000 L 192.500,291.000 L 192.500,292.000 L 192.500,293.000 L 192.500,294.000 L 192.500,295.000 L 192.500,296.000 L 192.500,297.000 L 192.500,298.000 L 192.500,299.000 L 192.500,300.000 L 192.500,301.000 L 192.500,302.000 L 192.500,303.000 L 192.500,304.000 L 192.500,305.000 L 192.500,306.000 L 192.500,307.000 L 192.500,308.000 L 192.500,309.000 L 192.500,310.000 L 192.500,311.000 L 192.500,312.000 L 192.500,313.000 L 192.500,314.000 L 192.500,315.000 L 192.500,316.000 L 192.500,317.000 L 192.500,318.000 L 192.500,319.000 L 192.500,320.000 L 192.000,320.500 L 191.500,321.000 L 191.000,321.500 L 190.500,322.000 L 190.000,322.500 L 189.500,323.000 L 189.000,323.500 L 188.500,324.000 L 188.000,324.500 L 187.500,325.000 L 187.000,325.500 L 186.500,326.000 L 186.000,326.500 L 185.500,327.000 L 185.000,327.500 L 184.500,328.000 L 184.000,328.500 L 183.500,329.000 L 183.000,329.500 L 182.500,330.000 L 182.000,330.500 L 181.500,331.000 L 181.000,331.500 L 180.500,332.000 L 180.000,332.500 L 179.500,333.000 L 179.000,333.500 L 178.500,334.000 L 178.000,334.500 L 177.500,335.000 L 177.000,335.500 L 176.500,336.000 L 176.000,336.500 L 175.500,337.000 L 175.000,337.500 L 174.500,338.000 L 174.000,338.500 L 173.500,339.000 L 173.000,339.500 L 172.500,340.000 L 172.000,340.500 L 171.500,341.000 L 171.000,341.500 L 170.500,342.000 L 170.000,342.500 L 169.500,343.000 L 169.000,343.500 L 168.500,344.000 L 168.000,344.500 L 167.500,345.000 L 167.000,345.500 L 166.500,346.000 L 166.000,346.500 L 165.500,347.000 L 165.000,347.500 L 164.500,348.000 L 164.000,348.500 L 163.500,349.000 L 163.000,349.500 L 162.500,350.000 L 162.000,350.500 L 161.500,351.000 L 161.000,351.500 L 160.500,352.000 L 160.000,352.500 L 159.500,353.000 L 159.000,353.500 L 158.500,354.000 L 158.000,354.500 L 157.500,355.000 L 157.000,355.500 L 156.500,356.000 L 157.000,356.500 L 158.000,356.500 L 159.000,356.500 L 160.000,356.500 L 161.000,356.500 L 162.000,356.500 L 163.000,356.500 L 164.000,356.500 L 165.000,356.500 L 166.000,356.500 L 167.000,356.500 L 168.000,356.500 L 169.000,356.500 L 170.000,356.500 L 171.000,356.500 L 172.000,356.500 L 173.000,356.500 L 174.000,356.500 L 175.000,356.500 L 176.000,356.500 L 177.000,356.500 L 178.000,356.500 L 179.000,356.500 L 180.000,356.500 L 181.000,356.500 L 182.000,356.500 L 183.000,356.500 L 184.000,356.500 L 185.000,356.500 L 186.000,356.500 L 187.000,356.500 L 188.000,356.500 L 189.000,356.500 L 190.000,356.500 L 191.000,356.500 L 192.000,356.500 L 193.000,356.500 L 194.000,356.500 L 195.000,356.500 L 196.000,356.500 L 197.000,356.500 L 198.000,356.500 L 199.000,356.500 L 200.000,356.500 L 201.000,356.500 L 202.000,356.500 L 203.000,356.500 L 204.000,356.500 L 205.000,356.500 L 206.000,356.500 L 207.000,356.500 L 208.000,356.500 L 209.000,356.500 L 210.000,356.500 L 211.000,356.500 L 212.000,356.500 L 213.000,356.500 L 214.000,356.500 L 215.000,356.500 L 216.000,356.500 L 217.000,356.500 L 218.000,356.500 L 219.000,356.500 L 220.000,356.500 L 221.000,356.500 L 222.000,356.500 L 223.000,356.500 L 224.000,356.500 L 225.000,356.500 L 226.000,356.500 L 227.000,356.500 L 228.000,356.500 L 229.000,356.500 L 230.000,356.500 L 231.000,356.500 L 232.000,356.500 L 233.000,356.500 L 234.000,356.500 L 235.000,356.500 L 236.000,356.500 L 237.000,356.500 L 238.000,356.500 L 239.000,356.500 L 240.000,356.500 L 241.000,356.500 L 242.000,356.500 L 243.000,356.500 L 244.000,356.500 L 245.000,356.500 L 246.000,356.500 L 247.000,356.500 L 248.000,356.500 L 249.000,356.500 L 250.000,356.500 L 251.000,356.500 L 252.000,356.500 L 253.000,356.500 L 254.000,356.500 L 255.000,356.500 L 256.000,356.500 L 257.000,356.500 L 258.000,356.500 L 259.000,356.500 L 260.000,356.500 L 261.000,356.500 L 262.000,356.500 L 263.000,356.500 L 264.000,356.500 L 265.000,356.500 L 266.000,356.500 L 267.000,356.500 L 268.000,356.500 L 269.000,356.500 L 270.000,356.500 L 271.000,356.500 L 272.000,356.500 L 273.000,356.500 L 274.000,356.500 L 275.000,356.500 L 276.000,356.500 L 277.000,356.500 L 278.000,356.500 L 279.000,356.500 L 280.000,356.500 L 281.000,356.500 L 282.000,356.500 L 283.000,356.500 L 284.000,356.500 L 285.000,356.500 L 286.000,356.500 L 287.000,356.500 L 288.000,356.500 L 289.000,356.500 L 290.000,356.500 L 291.000,356.500 L 292.000,356.500 L 293.000,356.500 L 294.000,356.500 L 295.000,356.500 L 296.000,356.500 L 297.000,356.500 L 298.000,356.500 L 299.000,356.500 L 300.000,356.500 L 301.000,356.500 L 302.000,356.500 L 303.000,356.500 L 304.000,356.500 L 305.000,356.500 L 306.000,356.500 L 307.000,356.500 L 308.000,356.500 L 309.000,356.500 L 310.000,356.500 L 311.000,356.500 L 312.000,356.500 L 313.000,356.500 L 314.000,356.500 L 315.000,356.500 L 316.000,356.500 L 317.000,356.500 L 318.000,356.500 L 319.000,356.500 L 320.000,356.500 L 321.000,356.500 L 322.000,356.500 L 323.000,356.500 L 324.000,356.500 L 325.000,356.500 L 326.000,356.500 L 327.000,356.500 L 328.000,356.500 L 329.000,356.500 L 330.000,356.500 L 331.000,356.500 L 332.000,356.500 L 333.000,356.500 L 334.000,356.500 L 335.000,356.500 L 336.000,356.500 L 337.000,356.500 L 338.000,356.500 L 339.000,356.500 L 340.000,356.500 L 341.000,356.500 L 342.000,356.500 L 343.000,356.500 L 344.000,356.500 L 345.000,356.500 L 346.000,356.500 L 347.000,356.500 L 348.000,356.500 L 349.000,356.500 L 350.000,356.500 L 351.000,356.500 L 352.000,356.500 L 353.000,356.500 L 354.000,356.500 L 355.000,356.500 L 356.000,356.500 L 356.500,356.000 Z M 260.000,325.500 L 259.000,325.500 L 258.000,325.500 L 257.000,325.500 L 256.500,325.000 L 256.000,324.500 L 255.500,324.000 L 255.000,323.500 L 254.500,323.000 L 254.000,322.500 L 253.500,322.000 L 253.000,321.500 L 252.000,321.500 L 251.500,321.000 L 251.000,320.500 L 250.500,320.000 L 250.000,319.500 L 249.500,319.000 L 249.000,318.500 L 248.500,318.000 L 248.000,317.500 L 247.500,317.000 L 247.000,316.500 L 246.000,316.500 L 245.500,316.000 L 245.000,315.500 L 244.500,315.000 L 244.000,314.500 L 243.500,314.000 L 243.000,313.500 L 242.500,313.000 L 242.000,312.500 L 241.500,312.000 L 241.000,311.500 L 240.000,311.500 L 239.500,311.000 L 239.000,310.500 L 238.500,310.000 L 238.000,309.500 L 237.500,309.000 L 237.000,308.500 L 236.500,308.000 L 236.000,307.500 L 235.500,307.000 L 235.000,306.500 L 234.000,306.500 L 233.500,306.000 L 233.000,305.500 L 232.500,305.000 L 232.000,304.500 L 231.500,304.000 L 231.000,303.500 L 230.500,303.000 L 230.000,302.500 L 229.500,302.000 L 229.000,301.500 L 228.000,301.500 L 227.500,301.000 L 227.000,300.500 L 226.500,300.000 L 226.000,299.500 L 225.500,299.000 L 225.000,298.500 L 224.500,298.000 L 224.000,297.500 L 223.500,297.000 L 223.000,296.500 L 222.000,296.500 L 221.500,296.000 L 221.000,295.500 L 220.500,295.000 L 220.000,294.500 L 219.500,294.000 L 219.000,293.500 L 218.500,293.000 L 218.000,292.500 L 217.500,292.000 L 217.000,291.500 L 216.000,291.500 L 215.500,291.000 L 215.000,290.500 L 214.500,290.000 L 214.000,289.500 L 213.500,289.000 L 213.000,288.500 L 212.500,288.000 L 212.000,287.500 L 211.500,287.000 L 211.000,286.500 L 210.000,286.500 L 209.500,286.000 L 209.000,285.500 L 208.500,285.000 L 208.500,284.000 L 208.500,283.000 L 208.500,282.000 L 209.000,281.500 L 209.500,281.000 L 209.500,280.000 L 210.000,279.500 L 210.500,279.000 L 210.500,278.000 L 210.500,277.000 L 211.000,276.500 L 211.500,276.000 L 211.500,275.000 L 212.000,274.500 L 212.500,274.000 L 212.500,273.000 L 212.500,272.000 L 213.000,271.500 L 213.500,271.000 L 213.500,270.000 L 214.000,269.500 L 214.500,269.000 L 214.500,268.000 L 215.000,267.500 L 215.500,267.000 L 215.500,266.000 L 215.500,265.000 L 216.000,264.500 L 216.500,264.000 L 216.500,263.000 L 217.000,262.500 L 217.500,262.000 L 217.500,261.000 L 218.000,260.500 L 218.500,260.000 L 218.500,259.000 L 218.500,258.000 L 219.000,257.500 L 219.500,257.000 L 219.500,256.000 L 220.000,255.500 L 220.500,255.000 L 220.500,254.000 L 220.500,253.000 L 221.000,252.500 L 221.500,252.000 L 221.500,251.000 L 222.000,250.500 L 222.500,250.000 L 222.500,249.000 L 223.000,248.500 L 223.500,248.000 L 223.500,247.000 L 223.500,246.000 L 224.000,245.500 L 224.500,245.000 L 224.500,244.000 L 225.000,243.500 L 225.500,243.000 L 225.500,242.000 L 225.500,241.000 L 226.000,240.500 L 226.500,240.000 L 226.500,239.000 L 227.000,238.500 L 227.500,238.000 L 227.500,237.000 L 228.000,236.500 L 228.500,236.000 L 228.500,235.000 L 229.000,234.500 L 230.000,234.500 L 230.500,234.000 L 231.000,233.500 L 231.500,233.000 L 232.000,232.500 L 233.000,232.500 L 233.500,232.000 L 234.000,231.500 L 235.000,231.500 L 235.500,231.000 L 236.000,230.500 L 236.500,230.000 L 237.000,229.500 L 238.000,229.500 L 238.500,229.000 L 239.000,228.500 L 240.000,228.500 L 240.500,228.000 L 241.000,227.500 L 242.000,227.500 L 242.500,227.000 L 243.000,226.500 L 243.500,226.000 L 244.000,225.500 L 245.000,225.500 L 245.500,225.000 L 246.000,224.500 L 247.000,224.500 L 247.500,224.000 L 248.000,223.500 L 248.500,223.000 L 249.000,222.500 L 250.000,222.500 L 250.500,222.000 L 251.000,221.500 L 252.000,221.500 L 252.500,221.000 L 253.000,220.500 L 253.500,220.000 L 254.000,219.500 L 255.000,219.500 L 255.500,219.000 L 256.000,218.500 L 257.000,218.500 L 257.500,218.000 L 258.000,217.500 L 258.500,217.000 L 259.000,216.500 L 260.000,216.500 L 260.500,216.000 L 261.000,215.500 L 262.000,215.500 L 262.500,215.000 L 263.000,214.500 L 263.500,214.000 L 264.000,213.500 L 265.000,213.500 L 265.500,213.000 L 266.000,212.500 L 267.000,212.500 L 267.500,212.000 L 268.000,211.500 L 268.500,211.000 L 269.000,210.500 L 270.000,210.500 L 270.500,210.000 L 271.000,209.500 L 272.000,209.500 L 272.500,209.000 L 273.000,208.500 L 274.000,208.500 L 274.500,208.000 L 275.000,207.500 L 275.500,208.000 L 276.000,208.500 L 276.500,209.000 L 277.000,209.500 L 277.500,210.000 L 278.000,210.500 L 278.500,211.000 L 279.000,211.500 L 279.500,212.000 L 280.000,212.500 L 280.500,213.000 L 281.000,213.500 L 281.500,214.000 L 282.000,214.500 L 283.000,214.500 L 283.500,215.000 L 284.000,215.500 L 284.500,216.000 L 285.000,216.500 L 285.500,217.000 L 286.000,217.500 L 286.500,218.000 L 287.000,218.500 L 287.500,219.000 L 288.000,219.500 L 288.500,220.000 L 289.000,220.500 L 289.500,221.000 L 290.000,221.500 L 290.500,222.000 L 291.000,222.500 L 291.500,223.000 L 292.000,223.500 L 292.500,224.000 L 293.000,224.500 L 293.500,225.000 L 294.000,225.500 L 294.500,226.000 L 295.000,226.500 L 295.500,227.000 L 296.000,227.500 L 297.000,227.500 L 297.500,228.000 L 298.000,228.500 L 298.500,229.000 L 299.000,229.500 L 299.500,230.000 L 300.000,230.500 L 300.500,231.000 L 301.000,231.500 L 301.500,232.000 L 302.000,232.500 L 302.500,233.000 L 303.000,233.500 L 303.500,234.000 L 304.000,234.500 L 304.500,235.000 L 305.000,235.500 L 305.500,236.000 L 306.000,236.500 L 306.500,237.000 L 307.000,237.500 L 307.500,238.000 L 308.000,238.500 L 308.500,239.000 L 309.000,239.500 L 309.500,240.000 L 310.000,240.500 L 311.000,240.500 L 311.500,241.000 L 312.000,241.500 L 312.500,242.000 L 313.000,242.500 L 313.500,243.000 L 314.000,243.500 L 314.500,244.000 L 315.000,244.500 L 315.500,245.000 L 316.000,245.500 L 316.500,246.000 L 317.000,246.500 L 317.500,247.000 L 318.000,247.500 L 318.500,248.000 L 319.000,248.500 L 319.500,249.000 L 320.000,249.500 L 320.500,250.000 L 321.000,250.500 L 321.500,251.000 L 322.000,251.500 L 322.500,252.000 L 322.500,253.000 L 322.500,254.000 L 322.000,254.500 L 321.500,255.000 L 321.500,256.000 L 321.500,257.000 L 321.000,257.500 L 320.500,258.000 L 320.500,259.000 L 320.500,260.000 L 320.500,261.000 L 320.000,261.500 L 319.500,262.000 L 319.500,263.000 L 319.500,264.000 L 319.000,264.500 L 318.500,265.000 L 318.500,266.000 L 318.500,267.000 L 318.500,268.000 L 318.000,268.500 L 317.500,269.000 L 317.500,270.000 L 317.500,271.000 L 317.000,271.500 L 316.500,272.000 L 316.500,273.000 L 316.500,274.000 L 316.500,275.000 L 316.000,275.500 L 315.500,276.000 L 315.500,277.000 L 315.500,278.000 L 315.000,278.500 L 314.500,279.000 L 314.500,280.000 L 314.500,281.000 L 314.500,282.000 L 314.000,282.500 L 313.500,283.000 L 313.500,284.000 L 313.500,285.000 L 313.000,285.500 L 312.500,286.000 L 312.500,287.000 L 312.500,288.000 L 312.500,289.000 L 312.000,289.500 L 311.500,290.000 L 311.500,291.000 L 311.500,292.000 L 311.000,292.500 L 310.500,293.000 L 310.500,294.000 L 310.500,295.000 L 310.500,296.000 L 310.000,296.500 L 309.500,297.000 L 309.500,298.000 L 309.500,299.000 L 309.000,299.500 L 308.500,300.000 L 308.500,301.000 L 308.500,302.000 L 308.500,303.000 L 308.000,303.500 L 307.500,304.000 L 307.000,304.500 L 306.000,304.500 L 305.000,304.500 L 304.500,305.000 L 304.000,305.500 L 303.000,305.500 L 302.500,306.000 L 302.000,306.500 L 301.000,306.500 L 300.500,307.000 L 300.000,307.500 L 299.000,307.500 L 298.500,308.000 L 298.000,308.500 L 297.000,308.500 L 296.000,308.500 L 295.500,309.000 L 295.000,309.500 L 294.000,309.500 L 293.500,310.000 L 293.000,310.500 L 292.000,310.500 L 291.500,311.000 L 291.000,311.500 L 290.000,311.500 L 289.500,312.000 L 289.000,312.500 L 288.000,312.500 L 287.500,313.000 L 287.000,313.500 L 286.000,313.500 L 285.000,313.500 L 284.500,314.000 L 284.000,314.500 L 283.000,314.500 L 282.500,315.000 L 282.000,315.500 L 281.000,315.500 L 280.500,316.000 L 280.000,316.500 L 279.000,316.500 L 278.500,317.000 L 278.000,317.500 L 277.000,317.500 L 276.000,317.500 L 275.500,318.000 L 275.000,318.500 L 274.000,318.500 L 273.500,319.000 L 273.000,319.500 L 272.000,319.500 L 271.500,320.000 L 271.000,320.500 L 270.000,320.500 L 269.500,321.000 L 269.000,321.500 L 268.000,321.500 L 267.500,322.000 L 267.000,322.500 L 266.000,322.500 L 265.000,322.500 L 264.500,323.000 L 264.000,323.500 L 263.000,323.500 L 262.500,324.000 L 262.000,324.500 L 261.000,324.500 L 260.500,325.000 L 260.000,325.500 Z" fill="#D8DBDE" fill-rule="evenodd" stroke="none" /></svg>